<svg width="126" height="105" xmlns="http://www.w3.org/2000/svg"><g transform="translate(3 -1)" fill="none" fill-rule="evenodd"><g transform="translate(23)"><circle fill="#F1FBFF" cx="49" cy="55" r="49"/><circle fill="#C4EFFF" transform="rotate(-129 34.142 90.683)" cx="34.142" cy="90.683" r="6.5"/><circle fill="#C4EFFF" transform="rotate(-129 63 16)" cx="63" cy="16" r="4"/><circle fill="#C4EFFF" transform="rotate(-129 57.016 103.333)" cx="57.016" cy="103.333" r="2.5"/><circle fill="#C4EFFF" transform="rotate(-129 16.016 4.333)" cx="16.016" cy="4.333" r="2.5"/></g><circle stroke="#00B9FF" stroke-width="5" stroke-linecap="round" stroke-linejoin="round" cx="101" cy="47" r="15"/><path d="M89.479 58.89C84.933 62.362 82 67.84 82 74m38 0c0-5.71-2.519-10.832-6.506-14.315" stroke="#00B9FF" stroke-width="5" stroke-linecap="round" stroke-linejoin="round"/><path d="M53 64.5h16.75M62.5 57l7.5 7.5-7.5 7.5m.5-29.5H46.25M53.5 50L46 42.5l7.5-7.5" stroke="#00B9FF" stroke-linecap="round" stroke-linejoin="round" stroke-width="4"/><circle stroke="#00B9FF" stroke-width="5" stroke-linecap="round" stroke-linejoin="round" cx="19" cy="49" r="15"/><path d="M7.479 60.89C2.933 64.362 0 69.84 0 76m38 0c0-5.71-2.519-10.832-6.506-14.315" stroke="#00B9FF" stroke-width="5" stroke-linecap="round" stroke-linejoin="round"/></g></svg>