<svg width="164" height="105" xmlns="http://www.w3.org/2000/svg" xmlns:xlink="http://www.w3.org/1999/xlink"><defs><filter x="-2.5%" y="-13.9%" width="105%" height="127.8%" filterUnits="objectBoundingBox" id="b"><feGaussianBlur stdDeviation="2.5" in="SourceAlpha" result="shadowBlurInner1"/><feOffset dy="2" in="shadowBlurInner1" result="shadowOffsetInner1"/><feComposite in="shadowOffsetInner1" in2="SourceAlpha" operator="arithmetic" k2="-1" k3="1" result="shadowInnerInner1"/><feColorMatrix values="0 0 0 0 0 0 0 0 0 0 0 0 0 0 0 0 0 0 0.0650404283 0" in="shadowInnerInner1"/></filter><rect id="a" y="44" width="161.6" height="28.8" rx="3.2"/></defs><g transform="translate(1)" fill="none" fill-rule="evenodd"><circle fill="#F1F6F8" cx="81.5" cy="37.5" r="37.5"/><g transform="translate(0 12)"><use fill="#FFF" xlink:href="#a"/><use fill="#000" filter="url(#b)" xlink:href="#a"/><use stroke="#DFE8EC" xlink:href="#a"/></g><path d="M127.203 88.693l3.748 6.491-3.213 1.855-3.747-6.491-4.245 2.45-1.529-16.248 13.307 9.448-4.321 2.495z" fill="#DFE8EC"/><path fill="#F1F6F8" d="M16.418 85L26.6 74.818 36.782 85 26.6 95.182zM48.08 69.6L56 61.68l7.92 7.92L56 77.52zM57.743 99l5.657-5.657L69.057 99l-5.657 5.657zm71.414-82l4.243-4.243L137.643 17l-4.243 4.243zm10.586 18l5.657-5.657L151.057 35l-5.657 5.657z"/><path fill="#93A2A8" fill-rule="nonzero" d="M77 25.488V21h8.636v24.004h-5.032V25.488z"/></g></svg>