<svg width="100" height="104" xmlns="http://www.w3.org/2000/svg"><g transform="translate(-3)" fill="none" fill-rule="evenodd"><circle fill="#F1FBFF" cx="54" cy="49" r="49"/><circle fill="#C4EFFF" transform="rotate(-129 9.5 47.057)" cx="9.5" cy="47.057" r="6.5"/><circle fill="#C4EFFF" transform="rotate(-129 30.114 35)" cx="30.114" cy="35" r="4"/><circle fill="#C4EFFF" transform="rotate(-129 98.114 21)" cx="98.114" cy="21" r="4"/><circle fill="#C4EFFF" transform="rotate(-129 32.374 59.708)" cx="32.374" cy="59.708" r="2.5"/><circle fill="#C4EFFF" transform="rotate(-129 10.374 7.708)" cx="10.374" cy="7.708" r="2.5"/><path d="M61.114 101V67.5m-15 14.5l15-15 15 15m-27.5-73.5h16m-5.66 10.375h16.32m-16.32 9h16.32m-6.32 11h16.32m-16.32 9h16.32" stroke="#00B9FF" stroke-width="5" stroke-linecap="round" stroke-linejoin="round"/></g></svg>