<svg width="332" height="60" xmlns="http://www.w3.org/2000/svg"><defs><linearGradient x1="30.976%" y1="100%" x2="30.976%" y2="76.747%" id="a"><stop stop-color="#0DA6FE" offset="0%"/><stop stop-color="#03BBFF" offset="100%"/></linearGradient></defs><g fill="none" fill-rule="evenodd"><path d="M25.357 49.757l-3.043 8.953c-.188.555-.837.659-1.297.207l-9.34-9.16H11.2c-6.186 0-11.2-5.015-11.2-11.2v-18.71L19.438 0H56c6.186 0 11.2 5.014 11.2 11.2v27.357c0 6.185-5.014 11.2-11.2 11.2H25.357z" fill="url(#a)"/><rect fill="#009DD7" x="8" y="35.2" width="49.6" height="8" rx="1.6"/><rect fill="#1B67FD" x="8" y="34.4" width="49.6" height="8" rx="1.6"/><rect fill="#009DD7" x="8.8" y="21.6" width="49.6" height="8" rx="1.6"/><rect fill="#009DD7" x="17.6" y="8" width="40.8" height="8" rx="1.6"/><rect fill="#FFF" x="8.8" y="20.8" width="49.6" height="8" rx="1.6"/><rect fill="#FFF" x="17.6" y="7.2" width="40.8" height="8" rx="1.6"/><path d="M0 19.992c3.137.376 7.565.845 13.285 1.408 8.58.845 7.75-.844 7.197-7.884-.37-4.693-.738-9.198-1.107-13.516L0 19.992z" fill="#009DD7"/><path d="M0 20c5.48-.003 9.87-.003 13.166 0 6.857 0 5.76-2.535 6.034-9.296V0L0 20z" fill="#1B67FD"/><g fill-rule="nonzero"><path d="M90.694 39h-4.166V13.3h14.502v3.552H90.694v8.033h9.686v3.568h-9.686V39zm36.81-12.885c0 4.184-1.045 7.436-3.137 9.756-2.092 2.32-5.054 3.48-8.886 3.48-3.878 0-6.858-1.15-8.938-3.454-2.08-2.302-3.12-5.575-3.12-9.817s1.046-7.5 3.138-9.773c2.091-2.274 5.077-3.41 8.956-3.41 3.82 0 6.773 1.154 8.859 3.462 2.086 2.309 3.129 5.56 3.129 9.756zm-19.616 0c0 3.164.638 5.564 1.916 7.198 1.277 1.635 3.17 2.453 5.677 2.453 2.497 0 4.38-.809 5.652-2.426 1.271-1.617 1.907-4.026 1.907-7.225 0-3.152-.63-5.543-1.89-7.172-1.26-1.629-3.137-2.443-5.633-2.443-2.52 0-4.421.814-5.705 2.443-1.283 1.63-1.924 4.02-1.924 7.172zm28.338-.861h2.918c1.957 0 3.375-.363 4.253-1.09.88-.727 1.319-1.805 1.319-3.234 0-1.453-.475-2.496-1.424-3.13-.95-.632-2.379-.948-4.29-.948h-2.776v8.402zm0 3.48V39h-4.202V13.3h7.26c3.317 0 5.772.622 7.365 1.864 1.594 1.242 2.391 3.117 2.391 5.625 0 3.2-1.664 5.479-4.992 6.838L151.308 39h-4.782l-6.152-10.266h-4.148zM165.144 39l-7.454-21.463h-.14c.199 3.188.299 6.176.299 8.965V39h-3.815V13.3h5.924l7.137 20.444h.105l7.348-20.443h5.941V39h-4.043V26.291c0-1.277.033-2.941.097-4.992s.12-3.293.167-3.727h-.14L168.852 39h-3.71zm92.426-22.465c-2.414 0-4.312.856-5.695 2.567-1.383 1.71-2.074 4.072-2.074 7.084 0 3.152.665 5.537 1.995 7.154s3.255 2.426 5.774 2.426c1.09 0 2.145-.109 3.164-.326 1.02-.216 2.08-.495 3.182-.835v3.604c-2.016.762-4.3 1.143-6.855 1.143-3.762 0-6.65-1.14-8.666-3.42-2.016-2.279-3.024-5.54-3.024-9.782 0-2.671.49-5.01 1.468-7.013.978-2.004 2.393-3.54 4.245-4.606 1.852-1.066 4.025-1.6 6.521-1.6 2.625 0 5.051.551 7.278 1.653l-1.512 3.498a22.57 22.57 0 00-2.75-1.081 9.911 9.911 0 00-3.05-.466zM288.72 39h-4.218V27.416h-11.848V39h-4.2V13.3h4.2v10.512h11.848v-10.51h4.219V39zm21.712 0l-2.567-7.137h-9.826L295.525 39h-4.43l9.616-25.805h4.57L314.896 39h-4.464zm-3.674-10.758l-2.408-6.996a43.197 43.197 0 01-.73-2.215 47.894 47.894 0 01-.641-2.215c-.317 1.442-.78 3.018-1.39 4.729l-2.32 6.697h7.489zM323.652 39h-4.2V16.904h-7.56v-3.603h19.319v3.603h-7.559V39zm-101 2h-22.259v-3.998l8.468-8.513c2.5-2.56 4.159-4.376 4.975-5.447.816-1.07 1.411-2.077 1.786-3.02a8.145 8.145 0 00.561-3.033c0-1.482-.445-2.65-1.336-3.504-.891-.853-2.123-1.28-3.695-1.28a9.851 9.851 0 00-3.65.696c-1.176.465-2.534 1.303-4.077 2.516l-2.852-3.481c1.827-1.543 3.601-2.636 5.323-3.28 1.722-.644 3.556-.966 5.503-.966 3.055 0 5.503.798 7.345 2.393 1.841 1.594 2.762 3.74 2.762 6.435 0 1.482-.265 2.89-.797 4.222-.532 1.333-1.348 2.707-2.448 4.122-1.1 1.415-2.931 3.328-5.492 5.739l-5.705 5.525v.225h15.588V41z" fill="#1B67FD"/><path d="M186.5 27.5a1 1 0 010-2h1.5a1 1 0 110 2h-1.5zm4.5 0a1 1 0 110-2h8.406a1 1 0 110 2H191zm32.403 0h13.905a1 1 0 100-2h-13.905a1 1 0 100 2z" fill="#03BBFF"/><path d="M236.168 26.474l-4.905 5.35a1 1 0 101.474 1.352l5.5-6a1 1 0 00.026-1.322l-5.5-6.5a1 1 0 10-1.526 1.292l4.93 5.828z" fill="#03BBFF"/></g></g></svg>