<svg width="106" height="40" xmlns="http://www.w3.org/2000/svg"><g fill="none" fill-rule="evenodd"><rect stroke-opacity=".2" stroke="#A7B4C0" x=".5" y=".5" width="105" height="39" rx="6"/><path d="M20 6l.454 1.468h1.468l-1.188.907.454 1.468L20 8.935l-1.187.908.453-1.468-1.188-.907h1.468zm0 24.157l.454 1.468h1.468l-1.188.907.454 1.468L20 33.093 18.813 34l.453-1.468-1.188-.907h1.468zm6.04-21.961l.453 1.468h1.468l-1.188.908.454 1.467-1.188-.907-1.187.907.453-1.467-1.187-.908h1.468zm4.94 4.164l.454 1.467h1.468l-1.188.908.454 1.468-1.187-.908-1.188.908.454-1.468-1.188-.908h1.468zm0 11.758l.454 1.468h1.468l-1.188.907.454 1.468-1.187-.907-1.188.907.454-1.468-1.188-.907h1.468zM9.02 12.36l.453 1.467h1.468l-1.187.908.453 1.468-1.187-.908-1.188.908.454-1.468-1.188-.908h1.468zm23.059 5.718l.453 1.468H34l-1.188.907.454 1.469-1.187-.907-1.188.907.454-1.469-1.188-.907h1.468zm-24.157 0l.453 1.468h1.468l-1.188.907.454 1.469-1.187-.907-1.188.907.454-1.469L6 19.546h1.468zm1.098 6.04l.453 1.468h1.468l-1.187.907.453 1.468-1.187-.907-1.188.907.454-1.468-1.188-.907h1.468zm18.117 4.941l.454 1.468h1.468l-1.188.907.454 1.468-1.188-.907-1.188.907.454-1.468-1.187-.907h1.468zM13.96 8.196l.454 1.468h1.468l-1.187.908.454 1.467-1.188-.907-1.188.907.454-1.467-1.188-.908h1.468zm-1.097 20.863l.453 1.468h1.468l-1.187.907.453 1.468-1.187-.907-1.188.907.454-1.468-1.188-.907h1.468z" fill="#FFB312" fill-rule="nonzero"/><path d="M23.143 19.136h-.429v-1.33C22.714 16.26 21.496 15 20 15s-2.714 1.26-2.714 2.807v1.33h-.429c-.473 0-.857.396-.857.886v3.545c0 .49.384.887.857.887h6.286c.473 0 .857-.397.857-.887v-3.545c0-.49-.384-.887-.857-.887zm-1.857 0h-2.572v-1.33c0-.732.577-1.329 1.286-1.329.709 0 1.286.597 1.286 1.33v1.33z" fill="#FFF" fill-rule="nonzero"/><path d="M43 15.596c0 2.824 2.163 4.595 4.82 4.595 1.683 0 2.978-.679 3.94-1.731v-3.477h-4.3v1.905h2.043v.746c-.36.293-.988.533-1.683.533-1.455 0-2.483-1.12-2.483-2.571 0-1.452 1.028-2.571 2.483-2.571.842 0 1.523.466 1.883 1.052l1.923-1.012C50.972 11.959 49.77 11 47.82 11 45.163 11 43 12.772 43 15.596zm10.108 4.436v-8.885h3.74c2.803 0 4.82 1.678 4.82 4.435 0 2.758-2.017 4.45-4.807 4.45h-3.753zm2.297-1.999h1.442c1.562 0 2.47-1.132 2.47-2.45 0-1.373-.827-2.438-2.456-2.438h-1.456v4.888zm7.411 1.999v-8.885h4.46c2.003 0 3.098 1.345 3.098 2.957 0 1.598-1.095 2.917-3.098 2.917h-2.163v3.01h-2.297zm5.221-5.942c0-.612-.454-1.012-1.068-1.012h-1.856v1.998h1.856c.614 0 1.068-.386 1.068-.986zm8.332 5.942l-1.495-3.01h-1.175v3.01h-2.297v-8.885h4.46c1.976 0 3.098 1.305 3.098 2.957 0 1.545-.948 2.37-1.776 2.664L79 20.032h-2.63zm.254-5.955c0-.613-.507-.999-1.108-.999h-1.816v1.998h1.816c.6 0 1.108-.386 1.108-.999z" fill="#FFF"/><text font-family="HelveticaNeue-Medium, Helvetica Neue" font-size="8" font-weight="400" letter-spacing=".2" fill="#FFF"><tspan x="43" y="31">COMPLIANT</tspan></text></g></svg>