<svg width="139" height="98" xmlns="http://www.w3.org/2000/svg"><g fill="none" fill-rule="evenodd"><circle fill="#F1FBFF" cx="72" cy="49" r="49"/><path d="M8.338 36.134l42.571-16.342a2.6 2.6 0 013.36 1.495l15.337 39.958a2.6 2.6 0 01-1.495 3.359L25.54 80.945a7.8 7.8 0 01-10.078-4.486L3.852 46.21a7.8 7.8 0 014.486-10.077z" stroke="#00B9FF" stroke-width="6"/><path d="M7.754 51.354l1.12-.43 7.167 18.671-1.12.43A7.8 7.8 0 014.844 65.54l-1.577-4.11a7.8 7.8 0 014.487-10.077z" fill="#00BAFF"/><rect fill="#00B9FF" transform="rotate(-21 70.42 25.692)" x="53.919" y="22.192" width="33" height="7" rx="3.5"/><rect fill="#00B9FF" transform="rotate(-21 78.662 47.164)" x="62.162" y="43.664" width="33" height="7" rx="3.5"/><path fill="#F1FBFE" d="M35.383 46.333l1.536 4.001 10.948-12.236-11.29 20.401-2.113-5.501-12.03 10.93z"/><circle fill="#C4EFFF" cx="111.5" cy="19.5" r="6.5"/><circle fill="#C4EFFF" cx="135" cy="43" r="4"/><circle fill="#C4EFFF" cx="93.5" cy="75.5" r="2.5"/></g></svg>