<svg width="102" height="105" xmlns="http://www.w3.org/2000/svg"><g transform="translate(-3 2)" fill="none" fill-rule="evenodd"><circle fill="#F6FFE6" cx="56" cy="52" r="49"/><circle fill="#E4F9B7" transform="rotate(-129 9.5 56.866)" cx="9.5" cy="56.866" r="6.5"/><circle fill="#E4F9B7" transform="rotate(-129 30.114 44.809)" cx="30.114" cy="44.809" r="4"/><circle fill="#E4F9B7" transform="rotate(-129 32.374 69.516)" cx="32.374" cy="69.516" r="2.5"/><circle fill="#E4F9B7" transform="rotate(-129 10.374 17.516)" cx="10.374" cy="17.516" r="2.5"/><path stroke="#89C902" stroke-width="5" stroke-linecap="round" stroke-linejoin="round" d="M74.108 46.5h26v15.534L79.223 84.422v14.164l-5.115.914m0-53h-26v15.56l20.885 22.423V100.5l5.115-.915"/><path d="M60.858 5v16.75m7.5-7.25l-7.5 7.5-7.5-7.5m29.5 3.5v16.75m7.5-7.25l-7.5 7.5-7.5-7.5" stroke="#89C902" stroke-linecap="round" stroke-linejoin="round" stroke-width="4"/><path d="M96.108.1v11.725m5.25-5.075L96.108 12l-5.25-5.25" stroke="#89C902" stroke-linecap="round" stroke-linejoin="round" stroke-width="3"/></g></svg>