<svg width="164" height="108" xmlns="http://www.w3.org/2000/svg"><g transform="translate(1)" fill="none" fill-rule="evenodd"><circle fill="#F1FBFF" cx="81.5" cy="37.5" r="37.5"/><path d="M150.549 86l.451 6-8.571-6H4a4 4 0 01-4-4V60a4 4 0 014-4h154a4 4 0 014 4v22a4 4 0 01-4 4h-7.451z" stroke="#DFE8EC" fill="#FFF"/><path d="M44.18 76h-1.326l-5.461-8.388h-.055c.073.985.11 1.887.11 2.707V76h-1.074v-9.994h1.313l5.448 8.353h.054a68.79 68.79 0 01-.061-1.186 20.58 20.58 0 01-.034-1.432v-5.735h1.087V76zm5.743.137c-1.108 0-1.981-.338-2.622-1.012-.64-.674-.96-1.611-.96-2.81 0-1.207.297-2.167.892-2.877.595-.711 1.393-1.067 2.396-1.067.939 0 1.682.309 2.228.926.547.618.82 1.432.82 2.444v.718h-5.16c.022.88.245 1.547.666 2.003.422.456 1.015.684 1.78.684.808 0 1.605-.17 2.393-.506v1.011c-.4.174-.78.298-1.138.373-.357.075-.79.113-1.295.113zm-.308-6.816c-.601 0-1.081.196-1.439.588-.357.392-.568.934-.632 1.627h3.917c0-.715-.16-1.263-.479-1.644-.319-.38-.774-.57-1.367-.57zM60.45 76l-1.374-4.396c-.086-.268-.248-.88-.485-1.832h-.055a25.06 25.06 0 01-.478 1.846L56.643 76H55.33l-2.044-7.492h1.19c.483 1.882.85 3.315 1.104 4.3.253.984.397 1.647.434 1.989h.054c.05-.26.131-.596.243-1.008.112-.413.209-.74.29-.981l1.375-4.3h1.23l1.34 4.3c.255.783.428 1.442.52 1.975h.054c.018-.164.067-.417.147-.759.08-.341.555-2.18 1.425-5.516h1.176L61.797 76H60.45zm13.241-2.044c0 .697-.26 1.235-.779 1.613-.52.379-1.249.568-2.187.568-.994 0-1.769-.158-2.325-.472v-1.053c.36.183.747.326 1.16.431.412.105.81.157 1.192.157.592 0 1.048-.094 1.367-.283.32-.19.479-.478.479-.865 0-.292-.127-.541-.38-.749-.253-.207-.746-.452-1.48-.735-.697-.26-1.193-.486-1.487-.68a2.031 2.031 0 01-.656-.66 1.72 1.72 0 01-.215-.881c0-.611.248-1.093.745-1.446s1.178-.53 2.044-.53a5.98 5.98 0 012.365.492l-.403.923c-.752-.31-1.433-.465-2.044-.465-.538 0-.943.085-1.217.253-.273.169-.41.401-.41.697 0 .201.051.372.154.513.102.141.268.276.495.403.228.128.666.313 1.313.554.889.324 1.489.65 1.801.978.312.328.468.74.468 1.237zm2.913-5.448v4.86c0 .61.139 1.067.417 1.367.278.301.713.452 1.305.452.784 0 1.357-.215 1.72-.643.362-.428.543-1.128.543-2.099v-3.937h1.135V76h-.937l-.164-1.005h-.061a2.26 2.26 0 01-.968.848c-.412.196-.883.294-1.411.294-.912 0-1.594-.217-2.048-.65-.453-.433-.68-1.125-.68-2.078v-4.901h1.149zm11.012-.123c.985 0 1.75.336 2.294 1.008.544.672.817 1.624.817 2.854s-.275 2.186-.824 2.868c-.55.681-1.312 1.022-2.287 1.022-.487 0-.933-.09-1.336-.27a2.513 2.513 0 01-1.015-.83h-.082l-.24.963h-.813V65.363h1.135v2.584c0 .579-.019 1.099-.055 1.559h.055c.528-.748 1.312-1.121 2.351-1.121zm-.164.95c-.775 0-1.333.222-1.675.666-.341.445-.512 1.193-.512 2.246s.175 1.806.526 2.26c.35.453.914.68 1.688.68.698 0 1.217-.255 1.56-.763.34-.508.512-1.238.512-2.19 0-.976-.171-1.703-.513-2.181-.342-.479-.87-.718-1.586-.718zM102.26 76v-4.874c0-.597-.128-1.045-.383-1.343-.255-.299-.652-.448-1.19-.448-.706 0-1.228.203-1.565.608-.337.406-.506 1.03-.506 1.873V76H97.48v-4.874c0-.597-.127-1.045-.382-1.343-.256-.299-.654-.448-1.197-.448-.71 0-1.231.213-1.562.64-.33.425-.495 1.124-.495 2.094V76h-1.135v-7.492h.923l.184 1.025h.055a2.23 2.23 0 01.906-.854 2.77 2.77 0 011.309-.308c1.171 0 1.937.424 2.297 1.272h.055c.223-.392.546-.702.97-.93a3.012 3.012 0 011.45-.342c.847 0 1.482.218 1.903.653.422.435.633 1.131.633 2.088V76h-1.135zm4.607 0h-1.135v-7.492h1.135V76zm-1.23-9.522c0-.26.064-.45.191-.571a.669.669 0 01.479-.181c.182 0 .34.061.471.184.133.123.199.312.199.568 0 .255-.066.445-.199.57a.662.662 0 01-.471.188.655.655 0 01-.479-.188c-.127-.125-.191-.315-.191-.57zm8.47 7.478c0 .697-.26 1.235-.78 1.613-.52.379-1.249.568-2.187.568-.994 0-1.769-.158-2.325-.472v-1.053c.36.183.747.326 1.16.431.412.105.81.157 1.192.157.592 0 1.048-.094 1.367-.283.32-.19.479-.478.479-.865 0-.292-.127-.541-.38-.749-.253-.207-.746-.452-1.48-.735-.697-.26-1.193-.486-1.486-.68a2.031 2.031 0 01-.657-.66 1.72 1.72 0 01-.215-.881c0-.611.248-1.093.745-1.446s1.178-.53 2.044-.53a5.98 5.98 0 012.365.492l-.403.923c-.752-.31-1.433-.465-2.044-.465-.538 0-.943.085-1.217.253-.273.169-.41.401-.41.697 0 .201.051.372.154.513.102.141.268.276.495.403.228.128.666.313 1.313.554.889.324 1.489.65 1.801.978.312.328.468.74.468 1.237zm6.678 0c0 .697-.26 1.235-.78 1.613-.519.379-1.248.568-2.187.568-.993 0-1.768-.158-2.324-.472v-1.053c.36.183.746.326 1.159.431.412.105.81.157 1.193.157.592 0 1.048-.094 1.367-.283.319-.19.478-.478.478-.865 0-.292-.126-.541-.379-.749-.253-.207-.746-.452-1.48-.735-.697-.26-1.193-.486-1.487-.68a2.031 2.031 0 01-.656-.66 1.72 1.72 0 01-.215-.881c0-.611.248-1.093.745-1.446s1.178-.53 2.044-.53a5.98 5.98 0 012.365.492l-.403.923c-.752-.31-1.434-.465-2.044-.465-.538 0-.944.085-1.217.253-.274.169-.41.401-.41.697 0 .201.051.372.154.513.102.141.267.276.495.403.228.128.666.313 1.313.554.888.324 1.489.65 1.8.978.313.328.47.74.47 1.237zm2.98 2.044h-1.134v-7.492h1.135V76zm-1.23-9.522c0-.26.064-.45.192-.571a.669.669 0 01.478-.181.67.67 0 01.472.184c.132.123.198.312.198.568 0 .255-.066.445-.198.57a.662.662 0 01-.472.188.655.655 0 01-.478-.188c-.128-.125-.192-.315-.192-.57zm10.104 5.77c0 1.22-.308 2.174-.923 2.86-.615.686-1.465 1.029-2.55 1.029-.67 0-1.265-.158-1.784-.472a3.113 3.113 0 01-1.203-1.353c-.283-.588-.424-1.277-.424-2.065 0-1.221.305-2.173.916-2.854.61-.681 1.458-1.022 2.543-1.022 1.048 0 1.88.349 2.498 1.046.618.697.927 1.64.927 2.83zm-5.708 0c0 .956.191 1.685.574 2.187.383.5.946.752 1.688.752.743 0 1.307-.25 1.692-.749s.578-1.23.578-2.19c0-.953-.193-1.677-.578-2.171-.385-.495-.953-.742-1.705-.742-.743 0-1.304.244-1.682.731-.378.488-.567 1.215-.567 2.181zM139.754 76v-4.847c0-.61-.14-1.066-.417-1.367-.278-.3-.713-.451-1.306-.451-.784 0-1.358.212-1.722.636-.365.424-.547 1.123-.547 2.098V76h-1.135v-7.492h.923l.184 1.025h.055c.232-.369.558-.655.978-.858a3.17 3.17 0 011.401-.304c.902 0 1.581.218 2.037.653.456.435.684 1.131.684 2.088V76h-1.135z" fill="#B7C5CC" fill-rule="nonzero"/><circle fill="#F1FBFE" cx="19.5" cy="71.5" r="8.5"/><circle fill="#E7F9FF" cx="148" cy="38" r="3"/><circle fill="#E7F9FF" cx="105" cy="99" r="3"/><circle fill="#E7F9FF" cx="88" cy="106" r="2"/><circle fill="#E7F9FF" cx="138" cy="26" r="2"/><circle fill="#E7F9FF" cx="64" cy="89" r="5"/><path d="M20.229 73.245h-.718l-.349-7.24h1.415l-.348 7.24zm-1.19 2.03c0-.62.273-.93.82-.93.265 0 .469.08.612.24.144.16.216.39.216.69 0 .292-.073.519-.22.68-.145.162-.348.243-.608.243a.831.831 0 01-.588-.215c-.154-.144-.232-.38-.232-.708z" fill="#B7C5CC" fill-rule="nonzero"/><path d="M74 40.3c6.78-4.7 10.17-8.6 10.17-11.7 0-.94-.225-1.68-.675-2.22-.45-.54-1.155-.81-2.115-.81-1.98 0-3.03 1.35-3.15 4.05h-4.11c.12-2.5.88-4.395 2.28-5.685S79.57 22 81.71 22c2.18 0 3.855.565 5.025 1.695 1.17 1.13 1.755 2.635 1.755 4.515 0 1.48-.435 2.965-1.305 4.455a18.086 18.086 0 01-3.315 4.11A26.029 26.029 0 0179.64 40h9.27v3.45H74V40.3z" fill="#03BBFF" fill-rule="nonzero"/></g></svg>