<svg width="127" height="101" xmlns="http://www.w3.org/2000/svg"><g transform="translate(-1 -3)" fill="none" fill-rule="evenodd"><circle fill="#F1FBFF" cx="72" cy="55" r="49"/><g transform="translate(39 22)" stroke="#00B9FF" stroke-linecap="round" stroke-linejoin="round" stroke-width="5"><rect x="8.6" y="21" width="70" height="39.9" rx="4.2"/><rect x="35.9" y="60.9" width="15.4" height="7.7" rx="2.1"/><rect x=".9" y="31.5" width="7.7" height="11.9" rx="3.85"/><rect x="78.6" y="31.5" width="7.7" height="11.9" rx="3.85"/><circle cx="25.05" cy="36.75" r="5.95"/><circle cx="63.55" cy="36.75" r="5.95"/><path d="M52 52.5a7.7 7.7 0 10-15.4 0"/><circle cx="33.8" cy="3.5" r="3.5"/><path d="M31.7 7l-5.95 14"/></g><circle fill="#C4EFFF" transform="rotate(150 45.5 9.5)" cx="45.5" cy="9.5" r="6.5"/><circle fill="#C4EFFF" transform="rotate(150 39.5 30.5)" cx="39.5" cy="30.5" r="3.5"/><circle fill="#C4EFFF" transform="rotate(150 3.5 51.5)" cx="3.5" cy="51.5" r="2.5"/><circle fill="#C4EFFF" transform="rotate(150 25 87.813)" cx="25" cy="87.813" r="4"/></g></svg>