<svg width="164" height="109" xmlns="http://www.w3.org/2000/svg"><g transform="translate(1)" fill="none" fill-rule="evenodd"><circle fill="#F6FFE6" cx="81.5" cy="37.5" r="37.5"/><rect stroke="#DFE8EC" fill="#FBFCFA" y="56" width="162" height="29" rx="3.2"/><path d="M134 93v8h-3v-8h-6l7.5-14 7.5 14h-6zm-20.4 10.545V109h-2.2v-5.455H107L112.5 94l5.5 9.545h-4.4zM25.2 83v4h-1.4v-4H21l3.5-6 3.5 6h-2.8zm10.4-10.2V76h-1.2v-3.2H32l3-4.8 3 4.8h-2.4zM130.2 21v4h-1.4v-4H126l3.5-6 3.5 6h-2.8zm14.229 13.91V40h-1.858v-5.09H139l4.5-8.91 4.5 8.91h-3.571z" fill="#E5FABB"/><path d="M64.014 73.34c0 .88-.32 1.566-.957 2.058-.638.493-1.504.739-2.598.739-1.185 0-2.096-.153-2.734-.458v-1.121c.41.173.856.31 1.34.41.483.1.961.15 1.435.15.775 0 1.358-.147 1.75-.44.392-.295.588-.704.588-1.228 0-.346-.07-.63-.209-.85-.139-.222-.371-.426-.697-.613-.326-.187-.821-.398-1.487-.635-.93-.333-1.594-.727-1.992-1.183-.4-.456-.599-1.05-.599-1.784 0-.77.29-1.383.869-1.84.578-.455 1.344-.683 2.297-.683.993 0 1.907.183 2.74.547l-.362 1.012c-.824-.346-1.627-.52-2.406-.52-.615 0-1.096.133-1.442.397-.347.264-.52.631-.52 1.1 0 .347.064.63.192.852.127.22.343.423.646.608.303.184.766.388 1.39.612 1.049.373 1.77.774 2.164 1.203.395.428.592.984.592 1.668zm2.94-4.832v4.86c0 .61.138 1.067.416 1.367.278.301.713.452 1.306.452.784 0 1.357-.215 1.719-.643.362-.428.543-1.128.543-2.099v-3.937h1.135V76h-.936l-.164-1.005h-.062c-.232.37-.555.652-.967.848a3.253 3.253 0 01-1.412.294c-.911 0-1.594-.217-2.047-.65-.454-.433-.68-1.125-.68-2.078v-4.901h1.148zm11.012-.123c.984 0 1.749.336 2.293 1.008.545.672.817 1.624.817 2.854s-.274 2.186-.824 2.868c-.549.681-1.31 1.022-2.286 1.022-.488 0-.933-.09-1.337-.27a2.513 2.513 0 01-1.015-.83h-.082l-.239.963h-.814V65.363h1.135v2.584c0 .579-.018 1.099-.054 1.559h.054c.529-.748 1.313-1.121 2.352-1.121zm-.164.95c-.775 0-1.333.222-1.675.666-.342.445-.513 1.193-.513 2.246s.176 1.806.527 2.26c.35.453.913.68 1.688.68.697 0 1.217-.255 1.559-.763.341-.508.512-1.238.512-2.19 0-.976-.17-1.703-.512-2.181-.342-.479-.87-.718-1.586-.718zM92.608 76v-4.874c0-.597-.127-1.045-.382-1.343-.256-.299-.652-.448-1.19-.448-.706 0-1.228.203-1.565.608-.338.406-.506 1.03-.506 1.873V76H87.83v-4.874c0-.597-.128-1.045-.383-1.343-.255-.299-.654-.448-1.196-.448-.711 0-1.232.213-1.562.64-.33.425-.496 1.124-.496 2.094V76H83.06v-7.492h.922l.185 1.025h.055a2.23 2.23 0 01.905-.854 2.77 2.77 0 011.31-.308c1.17 0 1.936.424 2.296 1.272h.055c.223-.392.547-.702.97-.93a3.012 3.012 0 011.45-.342c.848 0 1.482.218 1.904.653.421.435.632 1.131.632 2.088V76h-1.135zm4.608 0H96.08v-7.492h1.135V76zm-1.23-9.522c0-.26.063-.45.19-.571a.669.669 0 01.48-.181c.182 0 .339.061.471.184.132.123.198.312.198.568 0 .255-.066.445-.198.57a.662.662 0 01-.472.188.655.655 0 01-.478-.188c-.128-.125-.192-.315-.192-.57zm6.056 8.722c.2 0 .394-.015.581-.044.187-.03.335-.06.444-.093v.869a2.093 2.093 0 01-.543.147c-.24.038-.455.058-.646.058-1.45 0-2.174-.764-2.174-2.29V69.39h-1.073v-.547l1.073-.472.479-1.6h.656v1.737h2.174v.882h-2.174v4.409c0 .451.107.797.321 1.039.214.241.508.362.882.362z" fill="#B7C5CC" fill-rule="nonzero"/><path d="M81.74 22c1.44 0 2.675.25 3.705.75 1.03.5 1.81 1.19 2.34 2.07.53.88.795 1.86.795 2.94 0 1.36-.37 2.475-1.11 3.345-.74.87-1.72 1.405-2.94 1.605v.15c2.96.88 4.44 2.62 4.44 5.22 0 1.82-.61 3.295-1.83 4.425-1.22 1.13-2.94 1.695-5.16 1.695-2.36 0-4.24-.585-5.64-1.755-1.4-1.17-2.18-2.935-2.34-5.295h4.14c.1 1.08.455 1.935 1.065 2.565.61.63 1.475.945 2.595.945.96 0 1.71-.265 2.25-.795s.81-1.225.81-2.085c0-1.02-.39-1.8-1.17-2.34-.78-.54-1.93-.81-3.45-.81h-.87v-3.45h.87c2.8.04 4.2-.93 4.2-2.91 0-.86-.25-1.535-.75-2.025s-1.18-.735-2.04-.735c-.9 0-1.64.285-2.22.855-.58.57-.91 1.365-.99 2.385H74.3c.12-2.16.82-3.825 2.1-4.995C77.68 22.585 79.46 22 81.74 22z" fill="#89C905" fill-rule="nonzero"/></g></svg>