<svg width="142" height="98" xmlns="http://www.w3.org/2000/svg"><g fill="none" fill-rule="evenodd"><circle fill="#F1FBFF" cx="72" cy="49" r="49"/><path d="M0 55.027c0-6.717 2.143-12.125 6.43-16.224 4.287-4.1 10.085-6.149 17.395-6.149 5.054 0 9.52 1.273 13.401 3.82 3.88 2.546 7.468 6.672 10.762 12.378 3.565-6.934 7.468-11.81 11.71-14.627C63.938 31.408 69.082 30 75.128 30c8.168 0 14.688 2.284 19.561 6.853C99.563 41.42 102 47.55 102 55.243c0 7.982-2.279 14.103-6.836 18.365C90.606 77.869 83.974 80 75.264 80c-5.91 0-11.1-1.499-15.567-4.496-4.467-2.998-8.28-7.638-11.438-13.922-3.43 5.814-7.05 9.913-10.864 12.297-3.812 2.383-8.381 3.575-13.706 3.575-4.737 0-8.9-.957-12.487-2.871-3.588-1.914-6.351-4.596-8.292-8.045C.97 63.09 0 59.252 0 55.028zM76.317 75c6.244 0 11.086-1.69 14.525-5.072C94.28 66.548 96 61.82 96 55.744c0-5.93-1.821-10.704-5.464-14.32C86.894 37.808 81.95 36 75.706 36c-5.611 0-10.17 1.42-13.677 4.258-3.506 2.839-7.183 8.308-11.029 16.408 3.213 6.654 6.765 11.373 10.656 14.157C65.548 73.608 70.434 75 76.316 75zM6.5 55.581c0 5.098 1.552 9.192 4.657 12.283 3.105 3.09 7.36 4.636 12.766 4.636 3.127 0 5.885-.57 8.275-1.708 2.39-1.139 4.557-2.784 6.5-4.935 1.944-2.15 4.21-5.757 6.802-10.818-2.814-5.893-5.92-10.122-9.314-12.689-3.396-2.567-7.483-3.85-12.263-3.85-5.361 0-9.605 1.527-12.732 4.582-3.127 3.055-4.691 7.221-4.691 12.5z" fill="#00B9FF" fill-rule="nonzero"/><circle fill="#C4EFFF" transform="rotate(150 64.88 15.066)" cx="64.879" cy="15.066" r="6.5"/><circle fill="#C4EFFF" transform="rotate(150 123 71)" cx="123" cy="71" r="4"/><circle fill="#C4EFFF" transform="rotate(150 139 50)" cx="139" cy="50" r="3"/><circle fill="#C4EFFF" transform="rotate(150 88 9)" cx="88" cy="9" r="2"/><circle fill="#C4EFFF" transform="rotate(150 109.5 20.5)" cx="109.5" cy="20.5" r="3.5"/></g></svg>