<svg width="98" height="104" xmlns="http://www.w3.org/2000/svg"><g transform="translate(0 3)" fill="none" fill-rule="evenodd"><circle fill="#F1FBFF" cx="49" cy="50" r="49"/><circle fill="#C4EFFF" transform="rotate(150 10 23.795)" cx="10" cy="23.795" r="4"/><circle fill="#C4EFFF" transform="rotate(150 55 77.795)" cx="55" cy="77.795" r="4"/><circle fill="#C4EFFF" transform="rotate(150 5.5 6.295)" cx="5.5" cy="6.295" r="2.5"/><circle fill="#C4EFFF" transform="rotate(150 77 98.795)" cx="77" cy="98.795" r="2"/><circle fill="#C4EFFF" transform="rotate(150 86.5 62.295)" cx="86.5" cy="62.295" r="3.5"/><g transform="translate(5 36.795)" stroke="#00B9FF" stroke-linecap="round" stroke-linejoin="round" stroke-width="4"><path d="M14.81 38.72a19.884 19.884 0 01-6.298-2.61l-.587-5.625-5.625-.587a19.884 19.884 0 01-2.61-6.299l3.562-4.394-3.563-4.394A19.884 19.884 0 012.3 8.512l5.625-.587.587-5.625a19.884 19.884 0 016.299-2.61l4.394 3.562L23.599-.31a19.884 19.884 0 016.299 2.61l.587 5.625 5.625.587a19.884 19.884 0 012.61 6.299l-3.562 4.394 3.563 4.394a19.884 19.884 0 01-2.611 6.299l-5.625.587-.587 5.625a19.884 19.884 0 01-6.299 2.61l-4.394-3.562-4.394 3.563z"/><circle cx="19.205" cy="19.205" r="6"/></g><g transform="translate(41.205)" stroke="#00B9FF" stroke-linecap="round" stroke-linejoin="round" stroke-width="4"><path d="M19.194 48.372a24.84 24.84 0 01-8.286-3.15l-.713-6.827-7.219-.754A24.876 24.876 0 01-.39 30.147l4.745-5.852-4.933-6.084c.586-2.57 1.57-4.99 2.88-7.192l7.894-.824.824-7.893A24.845 24.845 0 0118.211-.58l6.084 4.933L30.147-.39a24.876 24.876 0 017.494 3.367l.754 7.219 6.827.713a24.84 24.84 0 013.15 8.286l-4.136 5.101 3.974 4.901a24.866 24.866 0 01-3.672 8.558l-6.143.641-.641 6.143a24.866 24.866 0 01-8.558 3.672l-4.901-3.974-5.101 4.136z"/><circle cx="24" cy="24" r="7"/></g></g></svg>