<svg xmlns="http://www.w3.org/2000/svg" width="64.959" height="34.968"><defs><filter id="a" x="0" y="0" width="64.959" height="34.968" filterUnits="userSpaceOnUse"><feOffset dy="6"/><feGaussianBlur stdDeviation="3" result="b"/><feFlood flood-opacity=".161"/><feComposite operator="in" in2="b"/><feComposite in="SourceGraphic"/></filter></defs><g opacity=".95"><g filter="url(#a)"><path fill="#fff" opacity=".8" d="M9 3h46.959v16.968H9z"/></g><g opacity=".8"><path d="M23.386 11.309a4.937 4.937 0 0 0-9.722-1.216h1.566a3.441 3.441 0 1 1 6 3.231l-.647-.566-.983 1.122.5.442a3.437 3.437 0 0 1-4.879-1.8h-1.557a4.932 4.932 0 0 0 7.615 2.829l.9.793.984-1.122-.806-.706a4.913 4.913 0 0 0 1.029-3.007z" fill="#ffc900"/><path d="M16.726 12.052v-1.493H12.91c.021-.158.049-.313.083-.466a5.59 5.59 0 0 1 8.252-3.63l.747-1.292a7.084 7.084 0 1 0 0 12.269l-.746-1.292a5.59 5.59 0 0 1-8.254-3.635q-.051-.23-.083-.466z" fill="#313133"/><path d="M26.678 8.11v-.006a1.037 1.037 0 0 1 1.059-1.065 1.076 1.076 0 0 1 .809.32l-.233.265a.794.794 0 0 0-.574-.256.666.666 0 0 0-.67.574h1v.309h-1a.668.668 0 0 0 .671.589.791.791 0 0 0 .591-.268l.23.233a1.054 1.054 0 0 1-.836.365 1.029 1.029 0 0 1-1.047-1.06zm2.557-1.036h.924a.743.743 0 0 1 .539.182.466.466 0 0 1 .138.342v.006a.49.49 0 0 1-.295.459.505.505 0 0 1 .409.5v.006c0 .368-.3.565-.763.565h-.953zm1.239.582c0-.162-.129-.262-.362-.262h-.522v.547h.5c.232 0 .388-.091.388-.279zm-.309.592h-.575v.566h.6c.244 0 .4-.1.4-.283v-.006c0-.174-.14-.277-.425-.277zm1.486-1.174h.813a.691.691 0 0 1 .783.689v.006c0 .462-.371.7-.824.7h-.409v.665h-.362zm.783 1.071c.273 0 .445-.153.445-.367v-.007c0-.241-.174-.368-.445-.368h-.422v.741zm1.384-.035v-.006a1.077 1.077 0 0 1 2.154-.006v.006a1.077 1.077 0 0 1-2.154.006zm1.775 0v-.006a.7.7 0 0 0-.7-.73.694.694 0 0 0-.694.724v.006a.7.7 0 0 0 .7.73.694.694 0 0 0 .694-.724zm1.109-1.036h1.7v2.06h-.365V7.403h-.971v1.731h-.362zm2.517 0h1.528v.323h-1.166v.536h1.033v.327h-1.033v.554h1.18v.32h-1.542zm3.696 2.06V7.645l-1.117 1.489h-.316v-2.06h.363v1.451l1.085-1.451h.348v2.06zm-1.044-2.616h.252a.3.3 0 0 0 .512 0h.253a.526.526 0 0 1-1.018 0zm2.137 1.592v-.006a1.041 1.041 0 0 1 1.059-1.065 1.078 1.078 0 0 1 .81.32l-.232.268a.823.823 0 0 0-.58-.253.691.691 0 0 0-.677.724v.006a.694.694 0 0 0 .68.73.8.8 0 0 0 .592-.265l.233.236a1.064 1.064 0 0 1-.836.365 1.034 1.034 0 0 1-1.049-1.06zm2.557-1.036h.362v.686h.435c.48 0 .8.235.8.674v.006c0 .436-.318.694-.821.694h-.776zm.78 1.73c.268 0 .445-.13.445-.359 0-.229-.165-.356-.439-.356h-.427v.715zm1.49-1.73h.362v.856h.226l.774-.856h.458l-.938.995.988 1.065h-.465l-.806-.883h-.235v.883h-.364zm3.12-.014h.335l.907 2.074h-.382l-.211-.497h-.974l-.211.5h-.371zm.518 1.256l-.356-.824-.353.824zm-24.101 4.052h-.362v-.72h-.43l-.524.718h-.435l.571-.765a.621.621 0 0 1-.5-.618c0-.445.324-.674.827-.674h.856zm-.889-1.73c-.268 0-.427.124-.427.342 0 .22.171.347.433.347h.521v-.691zm1.71-.33h.362v.856h.227l.774-.856h.456l-.939.995.989 1.065h-.465l-.806-.883h-.236v.883h-.362zm2.47 0h.362v2.06h-.362zm1.114 1.036v-.006a1.041 1.041 0 0 1 1.06-1.065 1.076 1.076 0 0 1 .809.32l-.233.268a.82.82 0 0 0-.579-.253.691.691 0 0 0-.677.724v.006a.694.694 0 0 0 .68.73.8.8 0 0 0 .591-.265l.233.236a1.064 1.064 0 0 1-.836.365 1.035 1.035 0 0 1-1.048-1.06zm3.061-.696h-.656v-.34h1.674v.34H36.2v1.72h-.362zm1.687-.34h.362v.686h.435c.48 0 .8.235.8.674v.005c0 .436-.318.695-.821.695h-.774zm.783 1.73c.268 0 .445-.13.445-.359 0-.229-.165-.356-.439-.356h-.427v.719zm-11.534 1.503h.924a.743.743 0 0 1 .539.183.468.468 0 0 1 .138.342v.006a.49.49 0 0 1-.294.459.505.505 0 0 1 .409.5v.006c0 .367-.3.565-.762.565h-.954zm1.239.583c0-.161-.129-.262-.362-.262h-.521v.547h.494c.232 0 .388-.091.388-.279zm-.309.592h-.574v.566h.6c.244 0 .4-.1.4-.282v-.008c-.002-.173-.141-.276-.426-.276zm1.507-1.175h.362v2.06h-.362zm1.24 1.731l.75-1.745h.383l.747 1.745h.206v.753h-.342v-.424H30.59v.424h-.342v-.753zm.373.011h1.125l-.563-1.354zm4.274-1.756h.335l.906 2.074h-.382l-.209-.5h-.974l-.212.5h-.371zm.518 1.256l-.356-.824-.353.824zm1.368-1.242h.362v1.731h1.083v.329h-1.445zm1.6 0h.4l.621 1.584.619-1.584h.391l-.853 2.075h-.323zm2.454 1.037v-.006a1.077 1.077 0 0 1 2.154-.006v.006a1.057 1.057 0 0 1-1.081 1.066 1.046 1.046 0 0 1-1.073-1.06zm1.774 0v-.006a.7.7 0 0 0-.7-.73.693.693 0 0 0-.694.724v.006a.7.7 0 0 0 .7.73.693.693 0 0 0 .694-.724zm1.019 0v-.006a1.049 1.049 0 0 1 1.062-1.065 1.108 1.108 0 0 1 .791.279l-.229.273a.819.819 0 0 0-.577-.218.694.694 0 0 0-.668.724v.006a.688.688 0 0 0 .7.736.838.838 0 0 0 .5-.156v-.382h-.526v-.318h.877v.866a1.316 1.316 0 0 1-.86.321 1.022 1.022 0 0 1-1.07-1.06zm2.69-1.037h1.526v.324h-1.164v.536h1.033v.327h-1.033v.55h1.18v.324h-1.542zm2.263 0h.336l1.1 1.425v-1.425h.356v2.06h-.3l-1.135-1.465v1.465h-.357z" fill="#1a1818"/></g></g></svg>