<svg version="1.1" id="Layer_1" xmlns="http://www.w3.org/2000/svg" x="0" y="0" viewBox="0 0 400 400" xml:space="preserve"><style>.st4{fill:#204479}.st5{fill:#00aabd}</style><path d="M260.1 163.3c0 .1 0 .3-.1.4.1-.2.1-.3.1-.4zm-1.1 6.1zm1.5-9.1zm.4-12.7zm-.1-2.6zm-.5-5.4zm.5 17.4zm.1-3.2zm-.3-11.4zm-3.1 33.1z" fill="none"/><path class="st4" d="M181.1 237.7c-1.1.1-2.1.2-3.2.2h-.6c-1.1 0-2.2.1-3.3.1h-1v64h10v-64.5c-.4 0-.9.1-1.3.1-.2.1-.4.1-.6.1zM174 64c1.3 0 2.6 0 3.9.1-1.3-.1-2.6-.1-3.9-.1zm35.2 7.4c1 .5 2.1.9 3.1 1.4-1.1-.5-2.1-.9-3.1-1.4zm-3.7-1.5c1.1.4 2.1.9 3.2 1.3-1.1-.5-2.1-.9-3.2-1.3zm7.2 3.2c1 .5 2.1 1 3.1 1.6-1-.6-2.1-1.1-3.1-1.6zm-11-4.6l3.3 1.2c-1-.4-2.1-.8-3.3-1.2zm20.8 10.3c1 .7 2 1.4 2.9 2.1-.9-.8-1.9-1.5-2.9-2.1zm-3.2-2.1c1.1.6 2.1 1.3 3.1 2-1-.7-2-1.3-3.1-2zm-3.2-1.8c1 .6 2.1 1.2 3.1 1.8-1-.7-2-1.3-3.1-1.8zm-33.7-10.5c1.2.1 2.3.3 3.5.4-1.2-.1-2.3-.3-3.5-.4zm15.6 2.9c1.2.3 2.3.7 3.5 1.1-1.2-.4-2.4-.7-3.5-1.1zm27.7 13.8c.9.7 1.8 1.4 2.8 2.1-.9-.7-1.8-1.5-2.8-2.1zm-47.5-17c1.2.1 2.4.1 3.6.3-1.1-.2-2.3-.2-3.6-.3zm8.3.8c1.2.2 2.3.4 3.4.6-1.1-.2-2.3-.4-3.4-.6zm1.7 171.9c-1.1.2-2.1.3-3.2.5 1.1-.1 2.1-.3 3.2-.5zm2.3-171.2c1.2.2 2.3.5 3.5.7-1.2-.3-2.4-.5-3.5-.7zm3.8.8c1.2.3 2.4.6 3.5.9-1.1-.3-2.3-.6-3.5-.9zm59.7 50.4c.5 1.1.9 2.3 1.4 3.5-.4-1.2-.9-2.3-1.4-3.5zm1.5 3.7c.4 1.1.8 2.3 1.2 3.5-.4-1.2-.8-2.3-1.2-3.5zm-4.8-10.7c1.2 2.2 2.3 4.6 3.3 6.9-1-2.3-2.1-4.6-3.3-6.9zm6.1 14.5c.4 1.2.7 2.3 1.1 3.5-.4-1.2-.7-2.4-1.1-3.5zm-8-17.7c.6 1.1 1.2 2.1 1.8 3.2-.5-1.1-1.2-2.2-1.8-3.2zM246 158c0 7.8 4.7 14.6 11.5 17.5.6-1.9 1-3.8 1.5-5.8v-.2c.4-1.9.8-3.8 1-5.8 0-.1 0-.3.1-.4.1-.8.2-1.7.3-2.5v-.4c.1-.9.2-1.9.3-2.9v-.5c.1-.8.1-1.6.1-2.4v-.8c0-.9.1-1.9.1-2.8v-3.3c0-.7-.1-1.3-.1-2v-.7c-.1-.8-.1-1.6-.2-2.4v-.1c-.1-.9-.2-1.9-.3-2.8-8.2 2-14.3 9.4-14.3 18.3zm11.9-30c.3 1.2.6 2.4.9 3.7-.2-1.2-.5-2.4-.9-3.7zm-29.1-44.5c.9.7 1.8 1.5 2.6 2.2-.8-.8-1.7-1.5-2.6-2.2zm18 19.8c.7 1 1.3 2 1.9 3-.6-1-1.3-2-1.9-3zm-12.2-14.7c.9.8 1.7 1.7 2.5 2.6-.8-.9-1.7-1.8-2.5-2.6zm-2.8-2.6c.9.8 1.7 1.6 2.6 2.4-.9-.9-1.8-1.7-2.6-2.4zm5.4 5.2c1.7 1.8 3.4 3.7 4.9 5.7-1.6-2-3.2-3.9-4.9-5.7zm5 5.8c.7.9 1.5 1.9 2.2 2.9-.7-1-1.4-2-2.2-2.9zm2.4 3.1c.7 1 1.4 1.9 2 2.9-.7-.9-1.3-1.9-2-2.9zm14.3 31.7c.6 2.6 1 5.2 1.4 7.8-.4-2.6-.9-5.2-1.4-7.8zm-19.8 76.9c-1.5 1.7-3 3.3-4.6 4.8 1.6-1.6 3.1-3.2 4.6-4.8zm-7.3 7.3c-1.6 1.4-3.3 2.8-5 4.1 1.7-1.3 3.4-2.6 5-4.1zm2.6-2.4c-.8.8-1.6 1.5-2.4 2.2.8-.7 1.6-1.4 2.4-2.2zm-7.9 6.8c-.8.6-1.7 1.3-2.6 1.9.9-.7 1.8-1.3 2.6-1.9zm-2.8 2c-1.8 1.2-3.6 2.4-5.4 3.5 1.8-1.1 3.6-2.2 5.4-3.5zm21.8-21.9c-1.3 1.9-2.7 3.7-4.1 5.4 1.5-1.7 2.8-3.5 4.1-5.4zm9.8-18.4c-1.2 3.2-2.7 6.4-4.3 9.4 1.6-3 3-6.1 4.3-9.4zm2.2-6.6c-.7 2.2-1.4 4.5-2.2 6.6.8-2.2 1.5-4.4 2.2-6.6zM241.4 206c-.7.9-1.4 1.7-2.2 2.5.8-.8 1.5-1.7 2.2-2.5zm9.5-14.3c-1.6 3-3.4 5.9-5.3 8.8 1.9-2.9 3.7-5.8 5.3-8.8zm-36.1 36.1c-.9.5-1.8 1-2.8 1.4 1-.4 1.9-.9 2.8-1.4zm3.1-1.7l-2.7 1.5c.8-.4 1.8-.9 2.7-1.5zm-15.8 7.2c-1 .3-2 .6-3 1 1.1-.3 2.1-.6 3-1zm-3.5 1.2c-1 .3-2 .6-3 .8 1-.3 2-.5 3-.8zm13.3-5.2c-.9.5-1.9.9-2.9 1.3 1-.4 1.9-.8 2.9-1.3zm-6.6 2.9c-.9.4-1.9.7-2.8 1 .9-.3 1.9-.6 2.8-1zm-10 3.2c-1 .2-1.9.5-2.9.7.9-.3 1.9-.5 2.9-.7zm-3.4.8c-1 .2-2 .4-3.1.6 1-.2 2-.4 3.1-.6zm16.6-5.3c-1 .4-1.9.8-2.9 1.2 1-.4 2-.8 2.9-1.2z"/><path class="st4" d="M174 238c1.1 0 2.2 0 3.3-.1-1.1.1-2.2.1-3.3.1zm7.7-.3c.4 0 .9-.1 1.3-.1.6-.1 1.2-.1 1.8-.2-1 .1-2.1.2-3.1.3zm-3.7.2c1.1 0 2.1-.1 3.2-.2-1.1.1-2.2.2-3.2.2z"/><path class="st5" d="M246 158c0-8.9 6.1-16.3 14.3-18.4-.3-2.6-.8-5.3-1.4-7.8v-.1c-.3-1.2-.6-2.5-.9-3.7 0-.1 0-.2-.1-.3-.3-1.2-.7-2.4-1.1-3.5 0-.1-.1-.2-.1-.3-.4-1.2-.8-2.3-1.2-3.5 0-.1-.1-.2-.1-.2-.4-1.2-.9-2.3-1.4-3.5v-.1c-1-2.4-2.1-4.7-3.3-6.9-.6-1.1-1.2-2.2-1.8-3.2 0-.1-.1-.2-.1-.2-.6-1-1.2-2-1.9-3-.1-.1-.1-.2-.2-.3-.7-1-1.3-2-2-2.9-.1-.1-.1-.2-.2-.3-.7-1-1.4-1.9-2.2-2.9 0-.1-.1-.1-.1-.2-1.6-2-3.2-3.8-4.9-5.7v-.1c-.8-.9-1.7-1.7-2.5-2.6-.1-.1-.2-.1-.2-.2-.8-.8-1.7-1.6-2.6-2.4l-.3-.3c-.9-.8-1.7-1.5-2.6-2.2l-.3-.3c-.9-.7-1.8-1.4-2.8-2.1-.1-.1-.2-.1-.3-.2-1-.7-1.9-1.4-2.9-2.1 0 0-.1 0-.1-.1-1-.7-2.1-1.4-3.1-2 0 0-.1 0-.1-.1-1-.6-2.1-1.2-3.1-1.8-.1-.1-.2-.1-.3-.2-1-.6-2-1.1-3.1-1.6-.2-.1-.3-.2-.5-.2-1-.5-2.1-1-3.1-1.4-.2-.1-.3-.1-.5-.2-1-.5-2.1-.9-3.2-1.3-.1-.1-.3-.1-.4-.2l-3.3-1.2c-.1 0-.2-.1-.3-.1-1.2-.4-2.3-.7-3.5-1.1h-.1c-1.2-.3-2.4-.6-3.5-.9-.1 0-.3-.1-.4-.1-1.1-.3-2.3-.5-3.5-.7-.2 0-.4-.1-.5-.1-1.1-.2-2.3-.4-3.4-.6-.2 0-.4-.1-.6-.1-1.2-.2-2.3-.3-3.5-.4h-.5l-3.6-.3h-.4c-1.3-.1-2.6-.1-3.9-.1-1.5 0-3 0-4.5.1s-3 .2-4.4.3c-2.2.2-4.4.5-6.5.9-1.4.3-2.8.5-4.2.9-3.5.8-6.9 1.8-10.3 3.1-1.3.5-2.6 1-4 1.6-.7.3-1.3.6-1.9.8-1.9.9-3.8 1.8-5.7 2.8l-3.6 2.1c-5.4 3.3-10.4 7.1-14.9 11.4-2.5 2.4-4.9 5-7.1 7.6-.9 1.1-1.7 2.2-2.6 3.3-.8 1.1-1.6 2.3-2.4 3.4-.8 1.2-1.5 2.3-2.3 3.5-3.3 5.4-6 11.1-8 17.2-.5 1.3-.9 2.7-1.3 4.1-2.1 7.6-3.3 15.6-3.3 23.8s1.2 16.2 3.3 23.8c.4 1.4.8 2.7 1.3 4.1 2.1 6.1 4.8 11.8 8 17.2.7 1.2 1.5 2.4 2.3 3.5.8 1.2 1.6 2.3 2.4 3.4.8 1.1 1.7 2.2 2.6 3.3 2.2 2.7 4.6 5.2 7.1 7.6 4.5 4.3 9.5 8.2 14.9 11.4l3.6 2.1c1.8 1 3.7 1.9 5.7 2.8.6.3 1.3.6 1.9.8 1.3.6 2.6 1.1 4 1.6 3.3 1.2 6.8 2.2 10.3 3.1l4.2.9c2.1.4 4.3.7 6.5.9 1.5.1 2.9.3 4.4.3 1.2.1 2.3.1 3.5.1h1c1.1 0 2.2 0 3.3-.1h.6c1.1 0 2.1-.1 3.2-.2.2 0 .4 0 .6-.1 1-.1 2.1-.2 3.1-.3h.2c1.1-.1 2.1-.3 3.2-.5.2 0 .4-.1.6-.1 1-.2 2.1-.4 3.1-.6.2 0 .3-.1.5-.1 1-.2 2-.4 2.9-.7.1 0 .2 0 .3-.1 1-.3 2-.5 3-.8.2-.1.4-.1.6-.2 1-.3 2-.6 3-1 .1 0 .2-.1.3-.1.9-.3 1.9-.7 2.8-1 .1 0 .2-.1.3-.1 1-.4 1.9-.8 2.9-1.2.2-.1.3-.1.5-.2 1-.4 1.9-.9 2.9-1.3.1 0 .1-.1.2-.1.9-.5 1.9-.9 2.8-1.4.1-.1.2-.1.3-.2l2.7-1.5c.1-.1.3-.2.4-.2 1.9-1.1 3.7-2.3 5.4-3.5.1-.1.2-.1.3-.2.9-.6 1.7-1.2 2.6-1.9.1-.1.2-.1.3-.2 1.7-1.3 3.4-2.7 5-4.1l.2-.2c.8-.7 1.6-1.5 2.4-2.2l.1-.1c1.6-1.5 3.1-3.1 4.6-4.8 0-.1.1-.1.1-.2.7-.8 1.5-1.7 2.2-2.5 1.4-1.8 2.8-3.6 4.1-5.4l.1-.1c1.9-2.8 3.7-5.7 5.3-8.8v-.1c1.6-3 3-6.2 4.3-9.4v-.1c.8-2.2 1.6-4.4 2.2-6.6-7.1-2.4-11.8-9.2-11.8-17zm-72 60.5c-37.3 0-67.5-30.2-67.5-67.5s30.2-67.5 67.5-67.5 67.5 30.2 67.5 67.5-30.2 67.5-67.5 67.5z"/><path class="st5" d="M265 139c-1.6 0-3.2.2-4.7.6.1.9.2 1.8.3 2.8v.1c.1.8.1 1.6.2 2.4v.7c0 .7.1 1.3.1 2v3.3c0 1 0 1.9-.1 2.8v.8c0 .8-.1 1.6-.1 2.4v.5c-.1 1-.2 1.9-.3 2.9v.4c-.1.9-.2 1.7-.3 2.5 0 .1 0 .3-.1.4-.3 2-.6 3.9-1 5.8v.2c-.4 2-.9 3.9-1.5 5.8 2.3 1 4.8 1.5 7.5 1.5 10.5 0 19-8.5 19-19s-8.5-18.9-19-18.9zM109.1 290.8s1.1 10.7 16 10.7h34.2L109.1 248v42.8z"/><path class="st4" d="M136.4 249.6c-25.7 0-26.7-1.1-26.7-1.1L160 302v-34.2c-.1 0 2.1-18.2-23.6-18.2z"/><path class="st5" d="M230 301.5c15 0 16-10.7 16-10.7V248l-50.3 53.5H230z"/><path class="st4" d="M245.5 248.5s-1.1 1.1-26.7 1.1c-25.7 0-23.5 18.2-23.5 18.2V302l50.2-53.5zm-85.1-116.7c0 1.9.3 3.4.9 4.8.6 1.3 1.5 2.4 2.6 3.3 1.1.9 2.4 1.7 3.9 2.3 1.1.5 2.3.9 3.5 1.3v-24.4c-2.8.5-5.3 1.7-7.3 3.5-2.4 2.1-3.6 5.2-3.6 9.2z"/><path class="st4" d="M174 83.5c-37.3 0-67.5 30.2-67.5 67.5s30.2 67.5 67.5 67.5 67.5-30.2 67.5-67.5-30.2-67.5-67.5-67.5zm26.2 92.9c-1.2 2.7-2.8 5-4.9 7-2.1 2-4.5 3.5-7.4 4.7-2.1.8-4.3 1.4-6.7 1.8v9.1h-10v-9c-6.5-.9-11.7-3.3-15.6-7.2-4.2-4.2-6.6-10.1-7.2-17.6h9.1c.1 4.8 1.6 8.6 4.4 11.3 2.5 2.5 5.6 4.1 9.3 5v-28.4c-3.2-.8-6-1.7-8.4-2.7-2.7-1.1-5-2.4-6.8-4-1.8-1.5-3.2-3.4-4-5.6-.9-2.2-1.3-4.9-1.3-8 0-3.2.6-6.2 1.7-8.8 1.1-2.7 2.7-5 4.7-7s4.3-3.5 7-4.7c2.3-1 4.7-1.6 7.2-1.9v-7.2h10v7.6c4.5 1 8.2 3 11.1 5.9 3.4 3.6 5.8 8.5 7.3 14.8h-9.1c-1.2-6-4.3-9.9-9.2-11.7v26.3l3.7 1c1.4.4 3.1 1 5 1.9 1.9.9 3.8 2.1 5.6 3.7 1.8 1.6 3.3 3.5 4.5 5.9 1.2 2.4 1.9 5.2 1.9 8.5-.1 3.5-.7 6.6-1.9 9.3z"/><path class="st4" d="M188.4 159.3c-1.2-1-2.7-1.8-4.4-2.5-.9-.3-1.8-.7-2.7-1v25.6c1-.2 1.9-.4 2.8-.7 1.7-.6 3.1-1.4 4.4-2.5s2.2-2.5 2.9-4.2c.7-1.7 1-3.7 1-5.9 0-2.1-.4-3.8-1.1-5.2-.7-1.4-1.7-2.6-2.9-3.6z"/><path class="st5" d="M195.6 152.8c-1.8-1.6-3.6-2.8-5.6-3.7-1.9-.9-3.6-1.5-5-1.9l-3.7-1v-26.3c4.9 1.8 8 5.7 9.2 11.7h9.1c-1.4-6.3-3.9-11.2-7.3-14.8-2.9-3-6.6-5-11.1-5.9v-7.6h-10v7.2c-2.5.3-5 .9-7.2 1.9-2.7 1.1-5 2.7-7 4.7s-3.5 4.3-4.7 7c-1.1 2.7-1.7 5.6-1.7 8.8 0 3.1.4 5.8 1.3 8s2.2 4.1 4 5.6c1.8 1.5 4.1 2.9 6.8 4 2.4 1 5.2 1.9 8.4 2.7v28.4c-3.7-.8-6.8-2.5-9.3-5-2.8-2.8-4.3-6.6-4.4-11.3h-9.1c.6 7.5 3 13.4 7.2 17.6 3.9 4 9.1 6.4 15.6 7.2v9h10V190c2.4-.4 4.6-1 6.7-1.8 2.9-1.1 5.3-2.7 7.4-4.7 2.1-2 3.7-4.3 4.9-7 1.2-2.7 1.8-5.8 1.8-9.3 0-3.3-.6-6.1-1.9-8.5-1.1-2.4-2.6-4.3-4.4-5.9zm-24.3-9.3c-1.2-.4-2.4-.8-3.5-1.3-1.5-.6-2.8-1.4-3.9-2.3-1.1-.9-2-2-2.6-3.3-.6-1.3-.9-2.9-.9-4.8 0-4.1 1.2-7.2 3.6-9.3 2.1-1.8 4.5-3 7.3-3.5v24.5zm20.1 30.5c-.7 1.7-1.6 3.1-2.9 4.2s-2.7 1.9-4.4 2.5c-.9.3-1.8.5-2.8.7v-25.6c.9.3 1.8.7 2.7 1 1.7.7 3.2 1.5 4.4 2.5 1.2 1 2.2 2.2 2.9 3.6.7 1.4 1.1 3.1 1.1 5.2 0 2.3-.4 4.2-1 5.9z"/><circle class="st5" cx="297" cy="120" r="11"/><circle class="st5" cx="297" cy="191" r="11"/><circle class="st5" cx="305" cy="157" r="8"/></svg>