<svg width="112" height="98" xmlns="http://www.w3.org/2000/svg" xmlns:xlink="http://www.w3.org/1999/xlink"><defs><path id="a" d="M0 98h111.682V.279H0z"/></defs><g fill="none" fill-rule="evenodd"><path fill="#204479" d="M32.574 97.721h13.961v-41.88H32.574z"/><path fill="#204479" d="M9.306 79.108h37.228v-27.92H9.306z"/><g transform="translate(0 -.279)"><path d="M9.307 51.466c0-10.28 8.334-18.613 18.614-18.613 10.28 0 18.614 8.334 18.614 18.613 0 10.28-8.334 18.614-18.614 18.614-10.28 0-18.614-8.334-18.614-18.614" fill="#204479"/><mask id="b" fill="#fff"><use xlink:href="#a"/></mask><path fill="#00ABBE" mask="url(#b)" d="M88.415 98h13.96V56.119h-13.96zm-23.268 0h13.96V56.119h-13.96zm-55.84 0h13.96V56.119H9.307z"/><path fill="#00ABBE" mask="url(#b)" d="M0 70.08h111.682V56.119H0z"/><path d="M65.147 51.466c0-10.28 8.334-18.613 18.614-18.613 10.28 0 18.614 8.334 18.614 18.613 0 10.28-8.334 18.614-18.614 18.614-10.28 0-18.614-8.334-18.614-18.614" fill="#00ABBE" mask="url(#b)"/><path fill="#00ABBE" mask="url(#b)" d="M65.147 79.387h37.228V51.466H65.147z"/><path d="M13.96 14.24C13.96 6.53 20.21.277 27.92.277S41.88 6.53 41.88 14.24 35.63 28.2 27.92 28.2c-7.71 0-13.96-6.25-13.96-13.96m65.147 32.729V33.44c-6.54 1.682-11.689 7.013-13.373 13.528h13.373z" fill="#204479" mask="url(#b)"/><path fill="#00ABBE" mask="url(#b)" d="M46.534 56.119h9.307v-9.307h-9.307z"/><path fill="#204479" mask="url(#b)" d="M65.148 70.08h46.534V56.119H65.148zM27.921 51.465h18.613v-4.653H27.921z"/><path fill="#00ABBE" mask="url(#b)" d="M23.267 46.968h55.841V5.087H23.267z"/><path d="M77.8 33.833c-5.912 2.02-10.496 7.062-12.065 13.135h13.373v-13.53a17.59 17.59 0 00-1.307.395m-8-19.594C69.8 6.53 76.05.28 83.76.28s13.96 6.25 13.96 13.96S91.47 28.2 83.76 28.2c-7.71 0-13.96-6.25-13.96-13.96" fill="#204479" mask="url(#b)"/></g></g></svg>