<svg width="14" height="16" xmlns="http://www.w3.org/2000/svg"><path d="M13.625 5H.375A.375.375 0 010 4.625V3.5A1.5 1.5 0 011.5 2H3V.375C3 .168 3.168 0 3.375 0h1.25C4.832 0 5 .168 5 .375V2h4V.375C9 .168 9.168 0 9.375 0h1.25c.207 0 .375.168.375.375V2h1.5A1.5 1.5 0 0114 3.5v1.125a.375.375 0 01-.375.375zM.375 6h13.25c.207 0 .375.168.375.375V14.5a1.5 1.5 0 01-1.5 1.5h-11A1.5 1.5 0 010 14.5V6.375C0 6.168.168 6 .375 6zM10.79 8.998l-.88-.887a.375.375 0 00-.53-.002l-3.314 3.287L4.63 9.947a.375.375 0 00-.53-.002l-.887.88a.375.375 0 00-.003.53l2.582 2.603a.375.375 0 00.53.002l4.467-4.431a.375.375 0 00.002-.53z" fill="#58595B"/></svg>