<svg width="100" height="103" xmlns="http://www.w3.org/2000/svg"><g fill="none" fill-rule="evenodd"><path fill="#00ABBE" d="M55.84 102.375h37.228V0H55.84z"/><path fill="#00ABBE" d="M27.921 102.375h27.92V41.881h-27.92z"/><path fill="#00ABBE" d="M.001 102.375h27.92V79.108H.001z"/><path fill="#204479" d="M27.921 102.375h9.306V79.108h-9.306zm27.919 0h9.308V41.881H55.84zm18.614-77.014L93.3 44.207l6.612-6.61L81.065 18.75z"/><path fill="#00ABBE" d="M93.068 43.975l.232.232 6.612-6.611-6.844-6.844z"/><path d="M55.84 18.613C55.84 8.334 64.174 0 74.454 0c10.281 0 18.614 8.334 18.614 18.613 0 10.28-8.333 18.614-18.614 18.614-10.28 0-18.614-8.334-18.614-18.614" fill="#204479"/><path d="M65.148 18.613a9.307 9.307 0 1118.613 0 9.307 9.307 0 11-18.613 0" fill="#FFF"/></g></svg>