<svg id="Layer_2_1_" xmlns="http://www.w3.org/2000/svg" viewBox="0 0 400 400"><style>.st0{fill:#204479}.st1{fill:#00aabd}</style><circle class="st0" cx="175" cy="175.5" r="85"/><path class="st1" d="M230 162.5c0-12.6 8.9-23.1 20.8-25.5-14-27.6-42.7-46.5-75.8-46.5-46.9 0-85 38.1-85 85s38.1 85 85 85c42.6 0 77.9-31.3 84-72.2-1 .1-2 .2-3 .2-14.4 0-26-11.6-26-26z"/><path class="st1" d="M282 162.5c0-14.4-11.6-26-26-26-1.8 0-3.5.2-5.2.5 5.9 11.6 9.2 24.6 9.2 38.5 0 4.4-.3 8.6-1 12.8 13-1.5 23-12.5 23-25.8z"/><circle class="st1" cx="297.8" cy="198.3" r="12.2"/><circle class="st1" cx="285.8" cy="120.3" r="12.2"/><circle class="st1" cx="300.5" cy="159" r="8.5"/><path class="st1" d="M136.5 202.5h77v85.1h-77z"/><path class="st0" d="M136.5 274.9h77v15.9h-77zm.5 22.4h77v12.2h-77zm23.1-85c3.5 3.5 8 5.7 13.3 6.6v-35.5c-4.7-1.2-8.8-2.4-12.3-3.8-3.4-1.4-6.3-3-8.6-5-2.3-1.9-4-4.3-5-7-1.1-2.8-1.6-6.1-1.6-10.1s.7-7.7 2.1-11.1c1.4-3.4 3.4-6.3 5.8-8.7 2.5-2.5 5.4-4.4 8.7-5.8 3.4-1.4 6.9-2.3 10.8-2.5v-8.8h7.4v9c7.2.9 13 3.6 17.3 8s7.3 10.6 9.1 18.5h-11.4c-1.8-8.9-6.8-14-15-15.6v33l8 2.1c1.8.4 3.9 1.2 6.3 2.3 2.4 1.1 4.7 2.7 7 4.6 2.2 2 4.1 4.4 5.7 7.4 1.6 2.9 2.3 6.5 2.3 10.6 0 4.4-.7 8.3-2.2 11.7-1.5 3.4-3.5 6.3-6.1 8.8-2.6 2.5-5.7 4.4-9.3 5.8-3.6 1.4-7.5 2.3-11.8 2.7v11h-7.4v-11c-8.9-.9-16-4-21.3-9.3-5.3-5.3-8.3-12.7-9-22.1h11.4c.4 6 2.3 10.8 5.8 14.2zm2.4-67.6c-3 2.6-4.5 6.5-4.5 11.6 0 2.3.4 4.3 1.1 6 .8 1.7 1.8 3 3.2 4.2 1.4 1.1 3 2.1 4.9 2.9 1.9.8 3.9 1.5 6.2 2.1v-31.4c-4.3.4-7.9 2-10.9 4.6zm25.2 72.9c2.1-.7 3.9-1.8 5.5-3.2 1.6-1.4 2.8-3.1 3.6-5.2.8-2.1 1.3-4.6 1.3-7.4 0-2.6-.4-4.8-1.3-6.5-.9-1.7-2.1-3.2-3.6-4.5-1.5-1.2-3.4-2.3-5.5-3.2-2.1-.8-4.4-1.6-6.8-2.3V219c2.4-.3 4.7-.7 6.8-1.4zm-9.7-97.1v120"/></svg>