<svg width="14" height="16" xmlns="http://www.w3.org/2000/svg"><path d="M10.036 9.536a5 5 0 10-7.072-7.071 5 5 0 007.072 7.07zm.843 4.964H8.003v-1.156a7.448 7.448 0 003.804-2.04c2.664-2.664 2.898-6.827.716-9.763l.335-.334a.5.5 0 000-.707l-.354-.354a.5.5 0 00-.707 0l-1.345 1.345c.1.087.2.172.294.266a6.005 6.005 0 010 8.485A5.963 5.963 0 016.502 12a5.963 5.963 0 01-4.244-1.758c-.096-.096-.164-.207-.252-.308l-1.86 1.859a.5.5 0 000 .707l.354.353a.5.5 0 00.707 0l.835-.834a7.482 7.482 0 003.96 1.457V14.5H3.126c-.621 0-1.125.504-1.125 1.125 0 .207.168.375.375.375h9.253a.375.375 0 00.375-.375c0-.621-.504-1.125-1.125-1.125z" fill="#58595B"/></svg>