<svg width="108" height="105" xmlns="http://www.w3.org/2000/svg" xmlns:xlink="http://www.w3.org/1999/xlink"><defs><path id="a" d="M.654.574H54.26V64H.654z"/><path id="c" d="M.262.345h34.342v34.342H.262z"/><path id="e" d="M.703.345h34.343v34.342H.703z"/></defs><g fill="none" fill-rule="evenodd"><path d="M46.487 70.08v-.093c.047-.466.047-.93.094-1.442v-.14c.046-.466.093-.93.185-1.349v-.14c.094-.465.14-.931.234-1.35v-.092a30.805 30.805 0 012.373-6.981c0-.046.046-.046.046-.093.186-.372.373-.791.605-1.163.047-.094.093-.139.14-.233l.558-.977c.046-.093.14-.233.233-.326.186-.279.326-.559.511-.791.093-.14.187-.279.327-.465.139-.233.279-.419.465-.605.139-.186.279-.372.418-.605.093-.139.187-.233.28-.373.232-.278.419-.511.651-.791-5.584-6.607-13.914-10.796-23.221-10.842C13.634 41.275.047 54.863 0 71.616v32.992h46.394V71.616c.047-.466.093-.977.093-1.536" fill="#00ABBE"/><g transform="translate(53 40.655)"><mask id="b" fill="#fff"><use xlink:href="#a"/></mask><path d="M23.874.574C14.567.62 6.238 4.808.654 11.416c4.654 5.445 7.213 12.425 7.213 19.591V64H54.26V31.007C54.215 14.208 40.627.62 23.874.574" fill="#00ABBE" mask="url(#b)"/></g><g transform="translate(13 -.345)"><mask id="d" fill="#fff"><use xlink:href="#c"/></mask><path d="M17.433.345c9.483 0 17.171 7.687 17.171 17.17 0 9.484-7.688 17.172-17.17 17.172C7.95 34.687.261 26.999.261 17.516.262 8.032 7.95.345 17.433.345" fill="#204479" mask="url(#d)"/></g><g transform="translate(59 -.345)"><mask id="f" fill="#fff"><use xlink:href="#e"/></mask><path d="M17.874.345c9.483 0 17.172 7.687 17.172 17.17 0 9.484-7.69 17.172-17.172 17.172S.703 26.999.703 17.516C.703 8.032 8.392.345 17.873.345" fill="#204479" mask="url(#f)"/></g><path d="M53.654 52.071c-.233.28-.419.513-.651.791-.094.14-.187.233-.28.373-.139.186-.279.372-.419.605-.139.186-.279.42-.465.605-.093.14-.186.28-.326.465-.186.28-.372.512-.511.791-.094.093-.14.232-.234.326l-.557.977c-.047.093-.094.14-.14.233-.187.372-.419.744-.605 1.163 0 .047-.047.047-.047.093a30.847 30.847 0 00-2.373 6.98v.093c-.093.466-.186.885-.233 1.35v.14c-.047.464-.139.93-.186 1.35v.14c-.046.463-.093.93-.093 1.441v.093c-.047.512-.047 1.024-.047 1.536v32.992h14.38V71.616c0-7.166-2.56-14.1-7.213-19.545" fill="#204479"/></g></svg>