<svg id="Layer_1" data-name="Layer 1" xmlns="http://www.w3.org/2000/svg" viewBox="0 0 400 400"><defs><style>.cls-2{fill:#204479}.cls-3{fill:#00aabd}</style></defs><path d="M175.5 203v21.29h19V203h-19z" fill="none"/><path class="cls-2" d="M76.5 224.29V289h14v-50.71h71v-14h-85zm99 0h19v14h-19zm127.66 0v14h6.34V289h14v-64.71h-20.34z"/><path class="cls-3" d="M161.5 224.29h14v14h-14z"/><path class="cls-2" d="M161.5 203h14v21.29h-14zm141.65 60h-13.99v43h14v-43.26h-.01v.26zm-108.65 0h14v43h-14zm.02-60h49v-53.26a54.51 54.51 0 00-49 53.26z"/><path class="cls-3" d="M184.5 203h10a54.51 54.51 0 0149-53.26V94h-152v109h93zm118.66.8a54.49 54.49 0 00-54.33-54.33c-1.8 0-3.58.1-5.33.27V203h-49v45h14v1h94.65v13.74-58.94z"/><path class="cls-2" d="M289.15 249H208.5v14h80.65v-14z"/><path class="cls-3" d="M208.5 260v-12h-14v15h14v-3zm94.65 3v-14h-14v14h14z"/></svg>