<svg width="237" height="54" xmlns="http://www.w3.org/2000/svg" xmlns:xlink="http://www.w3.org/1999/xlink"><defs><path id="a" d="M0 .826h53.173V54H0z"/><path id="c" d="M0 54h237V1H0z"/></defs><g fill="none" fill-rule="evenodd"><mask id="b" fill="#fff"><use xlink:href="#a"/></mask><path d="M43.386 39.822a3.112 3.112 0 11-6.04-1.513 3.113 3.113 0 116.04 1.513m-6.832-8.063a1.935 1.935 0 113.754.942 1.935 1.935 0 01-3.754-.942m-.084 3.81a.845.845 0 11-1.64-.412.845.845 0 011.64.412m-1.175 4.494a2.383 2.383 0 11-4.625-1.159 2.384 2.384 0 014.625 1.16m-6.238-8.186a1.45 1.45 0 112.815.704 1.45 1.45 0 01-2.815-.704m-2.047-2.37a2.136 2.136 0 01-.47.054c-.203 0-.395-.037-.582-.09a1.204 1.204 0 01-1.202 1.173 1.21 1.21 0 01-1.21-1.21c0-.6.446-1.078 1.022-1.172a2.126 2.126 0 01-.022-1.64c-.564-.104-1-.574-1-1.168 0-.669.542-1.21 1.21-1.21a1.2 1.2 0 011.191 1.112 2.12 2.12 0 01.593-.094c.202 0 .394.038.578.09a1.2 1.2 0 011.19-1.108 1.21 1.21 0 011.211 1.21c0 .588-.429 1.055-.985 1.164.098.246.156.513.156.794 0 .311-.07.605-.189.872.522.135.915.587.915 1.15a1.21 1.21 0 01-1.21 1.21 1.202 1.202 0 01-1.196-1.138m-4.156-5.015a.65.65 0 11-.402-1.236.65.65 0 01.402 1.236m.221 8.208a1.934 1.934 0 11-3.753-.94 1.933 1.933 0 113.753.94m-2.832 3.418a.587.587 0 11-.364-1.115.587.587 0 01.364 1.115m-.538 2.524a1.788 1.788 0 11-1.3-2.17 1.787 1.787 0 011.3 2.17m-3.96-3.567a1.788 1.788 0 01-1.299-2.17 1.788 1.788 0 113.47.87 1.79 1.79 0 01-2.17 1.3m-2.103 3.433a.588.588 0 11-.365-1.117.588.588 0 01.365 1.117m-.11 3.65a2.776 2.776 0 11-5.387-1.349 2.776 2.776 0 015.386 1.348m-.069-6.273a1.331 1.331 0 11-2.582-.646 1.331 1.331 0 012.582.646m1.873-15.624a.412.412 0 11-.797-.202.412.412 0 01.797.202m-6.169-5.227a3.82 3.82 0 117.412 1.857 3.82 3.82 0 01-7.412-1.857m8.78 8.036a1.286 1.286 0 01-1.624-.824 1.287 1.287 0 111.624.824m.002-5.469a1.205 1.205 0 11-.586 2.337 1.205 1.205 0 01.586-2.337m1.8 6.191a.412.412 0 11-.2.795.412.412 0 01.2-.795m.2-3.09a.952.952 0 11.592 1.811.953.953 0 11-.592-1.812m.096-2.352a.64.64 0 11.398 1.217.64.64 0 01-.398-1.217m2.058 7.142a.412.412 0 11-.2.799.412.412 0 01.2-.799m5.624-2.777a.772.772 0 111.498.377.772.772 0 01-1.498-.377m4.08 5.75a.845.845 0 11-1.638-.41.845.845 0 011.638.41m-1.986-6.91a1.204 1.204 0 012.333.584 1.202 1.202 0 11-2.333-.585m.496-5.008a1.789 1.789 0 113.47.868 1.789 1.789 0 01-3.47-.868m2.358-3.622a1.202 1.202 0 112.332.584 1.202 1.202 0 01-2.332-.584m2.554 4.254a.41.41 0 11-.499.299.412.412 0 01.5-.299m-1.959 8.202a.412.412 0 11.797.2.412.412 0 01-.797-.2m.816 8.318a.845.845 0 11-1.638-.41.845.845 0 011.638.41m-.66-2.39a1.173 1.173 0 11.57-2.276 1.173 1.173 0 01-.57 2.275m2.783-9.168a1.203 1.203 0 11-2.331-.586 1.203 1.203 0 012.331.586m-.378-2.649a.703.703 0 011.362.341.703.703 0 01-1.362-.34m.203-4.487a.772.772 0 111.498.373.772.772 0 01-1.498-.373m.72-5.426a2.47 2.47 0 114.792 1.2 2.47 2.47 0 01-4.793-1.2m3.7 10.892a1.788 1.788 0 11-1.11-3.399 1.788 1.788 0 011.11 3.4m2.436-4.507a1.204 1.204 0 01-2.333-.585 1.203 1.203 0 012.333.585M26.586.826C11.903.826 0 12.73 0 27.413S11.903 54 26.586 54c14.684 0 26.587-11.904 26.587-26.587S41.27.826 26.586.826" fill="#FEFEFE" mask="url(#b)"/><path d="M79.17 27.39h1.208c2.598 0 5.16 0 5.16-3.294 0-3.402-2.379-3.439-5.16-3.439h-1.207v6.732zM72 15h10.976C88.903 15 93 17.686 93 23.88c0 6.375-3.513 9.169-9.768 9.169H79.17V42H72V15zm29.602 18.018c0 2.376 1.51 4.204 4.109 4.204 2.598 0 4.109-1.828 4.109-4.204 0-2.304-1.51-4.242-4.109-4.242-2.6 0-4.11 1.938-4.11 4.242zM116 42.378h-6.392v-2.084h-.07C108.415 42.16 106.203 43 104.095 43 98.758 43 95 38.356 95 32.982 95 27.606 98.687 23 104.026 23c2.07 0 4.248.804 5.582 2.45v-1.83H116v18.758zm10.618-16.054h.073c1.272-2.301 3.455-3.324 6.036-3.324H134v6.393c-.909-.511-1.782-.62-2.799-.62-3.674 0-4.583 2.448-4.583 5.663V42H120V23.255h6.618v3.07zM144.407 42h-6.348V28.939H136v-5.397h2.059V18h6.348v5.542H148v5.397h-3.593z" fill="#FEFEFE"/><mask id="d" fill="#fff"><use xlink:href="#c"/></mask><path d="M150.377 42h6.245V23.678h-6.245V42zM157 16.642c0 2-1.579 3.644-3.501 3.644-1.921 0-3.499-1.643-3.499-3.644 0-1.999 1.578-3.642 3.499-3.642 1.922 0 3.501 1.643 3.501 3.642zm18 13.085c-.995-.731-2.175-1.316-3.464-1.316-2.58 0-4.606 1.975-4.606 4.571 0 2.706 1.952 4.606 4.716 4.606 1.18 0 2.47-.475 3.354-1.28v5.632c-1.473.731-3.096 1.06-4.717 1.06C164.681 43 160 38.868 160 33.2c0-6.033 4.644-10.2 10.578-10.2 1.547 0 3.096.366 4.422 1.096v5.631zM178 42h7V12h-7zm24.019-11.724c-.32-1.791-1.913-2.962-3.647-2.962-1.876 0-3.435 1.024-3.823 2.962h7.47zM208 34.115h-13.558c0 2.706 1.381 4.169 4.036 4.169 1.38 0 2.371-.476 3.08-1.72h6.194c-.496 2.194-1.77 3.804-3.433 4.865C202.655 42.488 200.6 43 198.514 43 192.496 43 188 39.49 188 33.018 188 26.766 192.142 23 198.054 23c6.3 0 9.946 4.022 9.946 10.42v.695zM209.948 15h8.693l4.148 6.983L226.937 15h8.692l-8.692 12.57L237 42h-8.512l-5.7-8.808-6.24 8.808H208l10.641-14.43z" fill="#FEFEFE" mask="url(#d)"/></g></svg>