<svg xmlns="http://www.w3.org/2000/svg" viewBox="0 0 400 400"><style>.st4{fill:#00aabd}</style><g id="Layer_2"><path d="M269.9 201.8c6.4-11.8 10-25.4 10-39.7 0-46.3-37.5-83.8-83.8-83.8-37.4 0-69.1 24.5-79.9 58.4-2.6 8-3.9 16.6-3.9 25.5 0 1.3 0 2.6.1 3.9l-26.6 59.2 26.2-.9c-2.3 54.7 28.5 49.8 28.5 49.8h19.2v51.2h88.5V248c6.9-12.6 15.8-32.6 21.7-46.2z" fill="#204479"/><path class="st4" d="M264.2 133.7h10.7c-4.4-12.3-11.7-23.2-20.9-32.1v23.1h-11.2l-.1-32.2c-13.4-9-29.5-14.3-46.9-14.2-37.4.1-69.1 24.6-79.8 58.5-2.5 8-3.9 16.6-3.9 25.5 0 1.3 0 2.6.1 3.9l-26.5 59.2 26.2-.9c-2.2 54.7 28.6 49.8 28.6 49.8h19.2l.1 51.2 88.5-.2-.1-77.4c6.9-12.5 15.8-32.5 21.6-46.1 3.6-6.6 6.2-13.8 7.9-21.3l-9.9-9.9 7.9-7.9 3.9 3.9c.1-1.5.1-3 .1-4.6 0-5.9-.6-11.6-1.8-17.1h-13.8l.1-11.2zm-50.1-37.1l16.6 16.6-7.9 7.9-16.6-16.6 7.9-7.9zM212 185l-7.9-7.9 16.6-16.6 7.9 7.9L212 185zm20.7-40.1l-50 .1v-11.2l50-.1v11.2zm21.4 59h-11.2l-.1-50H254l.1 50z"/><path class="st4" d="M253.9 74.7h-11.2v17.8c4 2.7 7.7 5.7 11.2 9.1V74.7zm30.6 112.4l7.9-7.9-12.7-12.7c-.2 4.8-.9 9.4-1.9 13.9l6.7 6.7zm29.7-53.5l-39.3.1c1.3 3.6 2.4 7.4 3.2 11.2l36.1-.1v-11.2z"/><path transform="rotate(-45.098 282.285 110.992)" class="st4" d="M270.5 105.4H294v11.2h-23.5z"/></g></svg>