<svg width="99" height="104" xmlns="http://www.w3.org/2000/svg" xmlns:xlink="http://www.w3.org/1999/xlink"><defs><path id="a" d="M0 .162h81.467v103.712H0z"/><path id="c" d="M.834.22h56.284v71.654H.834z"/><path id="e" d="M.835.221h39.681V72H.836z"/></defs><g fill="none" fill-rule="evenodd"><g transform="translate(0 -.162)"><mask id="b" fill="#fff"><use xlink:href="#a"/></mask><path d="M77.27 51.997c2.687-4.953 4.197-10.66 4.197-16.663 0-19.433-15.74-35.173-35.172-35.173-15.697 0-29.003 10.283-33.536 24.512-1.091 3.358-1.636 6.968-1.636 10.703 0 .546 0 1.091.042 1.637L0 61.86l10.997-.378c-.965 22.96 11.96 20.903 11.96 20.903h8.06v21.49h37.146V71.387c2.895-5.288 6.63-13.683 9.107-19.39" fill="#00ABBE" mask="url(#b)"/></g><g transform="translate(41 31.838)"><mask id="d" fill="#fff"><use xlink:href="#c"/></mask><path d="M54.219 36.033a24.14 24.14 0 002.899-11.513c0-13.425-10.874-24.3-24.299-24.3C21.973.22 12.781 7.325 9.65 17.155c-.754 2.32-1.131 4.814-1.131 7.395 0 .377 0 .754.028 1.13L.834 42.847l7.598-.26c-.667 15.861 8.264 14.44 8.264 14.44h5.567v14.847h25.663V49.43c2.001-3.653 4.582-9.453 6.293-13.396" fill="#00ABBE" mask="url(#d)"/></g><g transform="translate(41 31.838)"><mask id="f" fill="#fff"><use xlink:href="#e"/></mask><path d="M36.368 19.997c2.687-4.953 4.148-10.66 4.148-16.663 0-.637-.044-1.269-.077-1.897A24.38 24.38 0 0032.83.221c-10.845 0-20.043 7.104-23.175 16.934-.754 2.321-1.134 4.814-1.134 7.395 0 .377-.002.754.028 1.131L.835 42.848l7.596-.22c-.667 15.861 8.264 14.481 8.264 14.481h5.544V72h5.12V39.388c2.791-5.288 6.532-13.683 9.01-19.39" fill="#204479" mask="url(#f)"/></g></g></svg>