<svg width="16" height="16" xmlns="http://www.w3.org/2000/svg"><path d="M6 3h4L11.481.777A.5.5 0 0011.065 0h-6.13a.5.5 0 00-.415.777L6 3zm4 1H6C-.324 7.606.003 12.395.003 13c0 1.656 1.535 3 3.428 3h9.14c1.893 0 3.427-1.344 3.427-3 0-.594.292-5.414-5.998-9zm-1.456 8.688v.541a.272.272 0 01-.271.27h-.545a.272.272 0 01-.272-.27v-.547a1.975 1.975 0 01-1.067-.38.267.267 0 01-.02-.406l.4-.377a.279.279 0 01.344-.024.835.835 0 00.435.125h.956c.221 0 .401-.198.401-.444a.434.434 0 00-.299-.428l-1.531-.454A1.524 1.524 0 016 8.834c0-.825.646-1.495 1.452-1.518v-.547a.272.272 0 01.273-.269h.544a.271.271 0 01.272.27v.548a1.972 1.972 0 011.068.38.267.267 0 01.02.406l-.398.382a.279.279 0 01-.343.023.837.837 0 00-.436-.125h-.955c-.22 0-.401.198-.401.444 0 .202.123.377.299.428l1.531.454a1.524 1.524 0 011.075 1.46c-.005.826-.654 1.499-1.457 1.518z" fill="#58595B"/></svg>