<svg width="237" height="54" xmlns="http://www.w3.org/2000/svg"><defs><radialGradient cx="50%" cy="50%" fx="50%" fy="50%" r="50%" id="a"><stop stop-color="#002B53" offset="0%"/><stop stop-color="#00AABE" offset="100%"/></radialGradient></defs><g fill="none" fill-rule="evenodd"><path d="M26.587 0C11.903 0 0 11.904 0 26.587c0 14.684 11.903 26.587 26.587 26.587 14.683 0 26.587-11.903 26.587-26.587C53.174 11.904 41.27 0 26.587 0z"/><path d="M26.587.826C11.903.826 0 12.73 0 27.413 0 42.097 11.903 54 26.587 54c14.683 0 26.587-11.903 26.587-26.587C53.174 12.73 41.27.826 26.587.826z" fill="url(#a)" transform="translate(0 -.826)"/><path d="M19.339 21.078a.953.953 0 111.811-.595.953.953 0 01-1.811.595zm21.116-1.436a1.79 1.79 0 01-2.256-1.144 1.79 1.79 0 013.4-1.111 1.789 1.789 0 01-1.144 2.255m-26.813 18.04a.584.584 0 01-.74-.375.585.585 0 01.376-.74.586.586 0 01.74.375.586.586 0 01-.376.74m6.602-2.39a.587.587 0 01-.741-.375.587.587 0 01.376-.74.586.586 0 11.365 1.116m2.61-11.627a.65.65 0 01-.819-.415.649.649 0 11.82.415m-4.908-1.423a1.288 1.288 0 11-.802-2.447 1.288 1.288 0 01.802 2.447m2.496-3.504a.64.64 0 01-.807-.409.641.641 0 11.807.409m11.174-.85a1.79 1.79 0 11.87-3.472 1.79 1.79 0 01-.87 3.472M17.363 19.11a1.203 1.203 0 11.584-2.334 1.203 1.203 0 01-.584 2.334m-2.525.622a.41.41 0 01-.3-.498.41.41 0 01.5-.299.41.41 0 01.299.498.41.41 0 01-.5.3m4.714 4.029a.41.41 0 01-.3-.498.41.41 0 01.499-.3.41.41 0 01.299.499.41.41 0 01-.498.299m2.352 1.699a.41.41 0 01-.299-.498.411.411 0 01.798.2.41.41 0 01-.499.298m13.126-8.313a.412.412 0 01-.299-.499.412.412 0 01.798.2.412.412 0 01-.499.3M33.57 25.05a.412.412 0 01-.299-.5.412.412 0 01.797.2.41.41 0 01-.498.3m-17.824 9.198a1.789 1.789 0 11.868-3.47 1.789 1.789 0 01-.868 3.47m1.79 4.868a1.789 1.789 0 11.869-3.47 1.789 1.789 0 01-.869 3.47m-7.371 4.233a2.778 2.778 0 011.35-5.388 2.777 2.777 0 01-1.35 5.387m1.78-24.508a3.82 3.82 0 111.856-7.41 3.82 3.82 0 01-1.856 7.41m26.606-7.095a2.47 2.47 0 011.2-4.792 2.47 2.47 0 01-1.2 4.792M20.728 33.281a1.935 1.935 0 11.942-3.753 1.935 1.935 0 01-.942 3.753m17.233 0a1.935 1.935 0 11.942-3.753 1.935 1.935 0 01-.942 3.753m-4.533-2.8a1.174 1.174 0 01.57-2.277 1.174 1.174 0 01-.57 2.276m8.004-14.47a1.202 1.202 0 11.584-2.334 1.202 1.202 0 01-.585 2.334m-5.088 3.504a.703.703 0 01-.51-.852.701.701 0 011.362.342.703.703 0 01-.852.51m-2.793-5.96a1.201 1.201 0 11.584-2.331 1.2 1.2 0 01.874 1.458 1.2 1.2 0 01-1.458.874m-2.855 8.63a1.202 1.202 0 11.584-2.332 1.202 1.202 0 01-.584 2.332m4.057 0a1.202 1.202 0 11.584-2.332 1.202 1.202 0 01-.584 2.332m1.845-7.073a.773.773 0 01-.561-.937.77.77 0 01.936-.56.771.771 0 01.562.935.772.772 0 01-.937.562m-8.308 7.712a.773.773 0 01-.562-.937.772.772 0 011.499.375.774.774 0 01-.937.562m4.115 18.147a2.383 2.383 0 111.158-4.625 2.383 2.383 0 11-1.158 4.625m7.206.29a3.114 3.114 0 111.514-6.042 3.114 3.114 0 01-1.514 6.042m-9.498-8.45a1.451 1.451 0 11.706-2.815 1.451 1.451 0 01-.706 2.816m.67-4.561a.842.842 0 01-.613-1.024.844.844 0 011.024-.615.846.846 0 01-.41 1.639m2.28 5.233a.844.844 0 01-.615-1.024.845.845 0 011.025-.615.845.845 0 01.614 1.025.846.846 0 01-1.025.614m2.383 1.873a.846.846 0 11.413-1.637.846.846 0 01-.413 1.637m-23.596.67a1.332 1.332 0 11.646-2.585 1.332 1.332 0 01-.646 2.584m16.841-9.44a2.15 2.15 0 11-4.299 0 2.15 2.15 0 014.3 0" fill="#FEFEFE"/><path d="M25.967 24.629a1.21 1.21 0 11-2.421 0 1.21 1.21 0 012.42 0m3.552 0a1.21 1.21 0 11-2.419 0 1.21 1.21 0 012.42 0m-3.552 3.981a1.21 1.21 0 11-2.421 0 1.21 1.21 0 012.42 0m3.45 0a1.21 1.21 0 11-2.42 0 1.21 1.21 0 012.42 0" fill="#FEFEFE"/><path d="M78.987 26.35h1.178c2.534 0 5.033 0 5.033-3.283 0-3.39-2.32-3.427-5.033-3.427h-1.178v6.71zm-6.995-12.349H82.7c5.782 0 9.78 2.678 9.78 8.853 0 6.353-3.428 9.138-9.53 9.138h-3.962v8.922h-6.995V14zm28.837 17.775c0 2.32 1.535 4.104 4.177 4.104 2.641 0 4.176-1.784 4.176-4.104 0-2.249-1.535-4.14-4.176-4.14-2.642 0-4.177 1.891-4.177 4.14zm14.635 9.138h-6.497V38.88h-.071c-1.142 1.82-3.39 2.641-5.533 2.641-5.424 0-9.244-4.533-9.244-9.779 0-5.248 3.748-9.744 9.174-9.744 2.105 0 4.318.785 5.674 2.391v-1.785h6.497v18.311zm10.812-15.313h.071c1.25-2.247 3.391-3.246 5.925-3.246h1.25V28.6c-.893-.5-1.75-.606-2.748-.606-3.606 0-4.498 2.39-4.498 5.532v7.388h-6.496v-18.31h6.496v2.998zm17.416 15.313h-6.496V27.958h-2.107v-5.355h2.107v-5.497h6.496v5.497h3.677v5.355h-3.677z" fill="#58585B"/><path d="M0 53.174h236.271V0H0z"/><path d="M149.438 40.914h6.495v-18.31h-6.495v18.31zm6.887-25.342a3.656 3.656 0 01-3.641 3.641 3.655 3.655 0 01-3.639-3.64 3.655 3.655 0 013.639-3.64c2 0 3.641 1.641 3.641 3.64zm17.096 12.992c-.964-.714-2.106-1.284-3.355-1.284-2.5 0-4.461 1.927-4.461 4.461 0 2.641 1.89 4.497 4.568 4.497 1.142 0 2.392-.465 3.248-1.25v5.498c-1.427.713-2.998 1.034-4.568 1.034-5.426 0-9.96-4.033-9.96-9.566 0-5.889 4.499-9.957 10.245-9.957 1.499 0 2.999.357 4.283 1.07v5.497zm4.032 12.35h6.496V11.29h-6.496zM201.01 29.1c-.322-1.749-1.93-2.892-3.677-2.892-1.891 0-3.463 1-3.855 2.892h7.532zm6.03 3.747h-13.67c0 2.643 1.393 4.07 4.07 4.07 1.39 0 2.39-.463 3.105-1.677h6.246c-.5 2.14-1.784 3.713-3.462 4.748-1.677 1.033-3.748 1.533-5.853 1.533-6.068 0-10.601-3.426-10.601-9.744 0-6.104 4.176-9.78 10.137-9.78 6.352 0 10.029 3.926 10.029 10.172v.678z" fill="#58585B"/><path fill="#00AABD" d="M209.502 14.002h8.602l4.104 6.96 4.105-6.96h8.6l-8.6 12.528 9.958 14.384h-8.423l-5.64-8.78-6.175 8.78h-8.46l10.53-14.384z"/></g></svg>