<svg version="1.1" id="Layer_2_1_" xmlns="http://www.w3.org/2000/svg" x="0" y="0" viewBox="0 0 400 400" xml:space="preserve"><style>.st0{fill:#204479}.st1{fill:#00aabd}</style><path class="st0" d="M227 155.7c-8.5-31-36.9-53.8-70.6-53.8-40.5 0-73.2 32.8-73.2 73.2 0 40.5 32.8 73.2 73.2 73.2 6.8 0 13.3-.9 19.5-2.7-1.7-6.2-2.6-12.7-2.6-19.4-.1-33.6 22.7-62 53.7-70.5z"/><circle class="st0" cx="246.5" cy="226.3" r="73.2"/><path class="st1" d="M227 155.7c-8.5-31-36.9-53.8-70.6-53.8-10.4 0-20.3 2.2-29.3 6.1l14.9 16-7.8 7.2-16.9-18.1c-4.3 2.7-8.4 5.9-12.1 9.5l32 33.8-7.7 7.3-31.3-33.1c-3.1 4-5.7 8.3-7.9 12.9l14.3 15.4-7.8 7.2L86 154.5c-1.9 6.5-3 13.4-3 20.6 0 40.5 32.8 73.2 73.2 73.2 6.8 0 13.3-.9 19.5-2.7-1.7-6.2-2.6-12.7-2.6-19.4.1-33.6 22.9-62 53.9-70.5zM76.6 128.9l-7.8 7.2L86 154.5c1.1-3.8 2.5-7.5 4.2-11l-13.6-14.6z"/><path class="st1" d="M105.3 122.7L64 79.1l-7.7 7.3 41.9 44.3c2.2-2.9 4.5-5.5 7.1-8zm8.7-28.6l-7.8 7.2 11.1 11.9c3.1-1.9 6.3-3.7 9.7-5.2l-13-13.9zm145.1 153.6l7.3-7.7 35.8 33.9c3.4-3.9 6.3-8.2 8.8-12.8L291.5 243l7.2-7.8 16.8 15.6c2.7-7.7 4.2-15.9 4.2-24.6 0-40.5-32.8-73.2-73.2-73.2-6.8 0-13.3.9-19.5 2.7 1.7 6.2 2.6 12.7 2.6 19.4 0 33.7-22.7 62-53.7 70.6 8.5 31 36.9 53.8 70.6 53.8 9.1 0 17.8-1.7 25.8-4.7l-15.6-14.5 7.2-7.8 18.7 17.4c4.3-2.5 8.4-5.3 12.1-8.6l-35.6-33.6zm27.6 60.6l7.2-7.8-11.3-10.5c-3.3 1.9-6.8 3.5-10.4 4.9l14.5 13.4z"/><path class="st1" d="M294.7 281.4l41.7 39.5 7.3-7.7-41.5-39.3c-2.3 2.6-4.8 5.2-7.5 7.5zm26.8-10.5l7.2-7.8-13.2-12.3c-1.3 3.6-2.8 7-4.6 10.3l10.6 9.8z"/></svg>