<svg xmlns="http://www.w3.org/2000/svg" xmlns:xlink="http://www.w3.org/1999/xlink" width="20" height="20"><defs><path id="a" d="M899.305 2315h-14.61a2.695 2.695 0 0 0-2.695 2.695v14.61a2.695 2.695 0 0 0 2.695 2.695h7.206l.012-7.147h-1.857a.438.438 0 0 1-.438-.436l-.009-2.304c0-.243.196-.44.438-.44h1.854v-2.226c0-2.583 1.577-3.99 3.882-3.99h1.89c.243 0 .439.196.439.438v1.943a.438.438 0 0 1-.438.438h-1.16c-1.254 0-1.496.596-1.496 1.47v1.927h2.753c.263 0 .466.23.435.49l-.273 2.304a.438.438 0 0 1-.435.386h-2.468l-.012 7.147h4.287a2.695 2.695 0 0 0 2.695-2.695v-14.61a2.695 2.695 0 0 0-2.695-2.695z"/></defs><use xlink:href="#a" transform="translate(-882 -2315)"/></svg>