<svg xmlns="http://www.w3.org/2000/svg" xmlns:xlink="http://www.w3.org/1999/xlink" width="20" height="16"><defs><path id="a" d="M969.682 2318.861a8.14 8.14 0 0 1-1.38.448 4.117 4.117 0 0 0 1.136-1.739c.063-.19-.152-.354-.33-.252a8.136 8.136 0 0 1-2.108.837.572.572 0 0 1-.5-.12 4.412 4.412 0 0 0-2.854-1.035 4.78 4.78 0 0 0-1.366.203c-1.398.417-2.477 1.526-2.815 2.895a4.26 4.26 0 0 0-.103 1.526.145.145 0 0 1-.038.117.163.163 0 0 1-.135.051c-3.06-.273-5.82-1.692-7.77-3.993a.23.23 0 0 0-.37.028 4.023 4.023 0 0 0-.584 2.085c0 1.124.47 2.183 1.285 2.956a3.958 3.958 0 0 1-.983-.366c-.15-.08-.333.022-.335.186-.021 1.67.995 3.157 2.518 3.826a3.977 3.977 0 0 1-.818-.066c-.168-.03-.31.123-.257.28.494 1.484 1.823 2.578 3.413 2.826a8.183 8.183 0 0 1-4.456 1.302h-.499a.328.328 0 0 0-.323.239.324.324 0 0 0 .164.363 12.198 12.198 0 0 0 5.947 1.542c1.828 0 3.537-.349 5.082-1.037a11.197 11.197 0 0 0 3.718-2.68 11.666 11.666 0 0 0 2.277-3.667c.506-1.3.774-2.689.774-4.014v-.063a.7.7 0 0 1 .274-.55 8.322 8.322 0 0 0 1.715-1.809c.125-.18-.073-.407-.28-.319z"/></defs><use xlink:href="#a" transform="translate(-950 -2317)"/></svg>