<svg width="82" height="82" viewBox="0 0 82 82" fill="none" xmlns="http://www.w3.org/2000/svg">
<path d="M27.9164 57.5044H4C2.34315 57.5044 1 56.1613 1 54.5044V4.4361C1 2.77924 2.34315 1.4361 4 1.4361H78C79.6568 1.4361 81 2.77924 81 4.4361V54.5044C81 56.1613 79.6569 57.5044 78 57.5044H62.8494" stroke="#2B85E4" stroke-width="2" stroke-linecap="round"/>
<line x1="1" y1="8.44678" x2="81" y2="8.44678" stroke="#2B85E4" stroke-width="2"/>
<ellipse cx="70.0008" cy="4.94104" rx="1" ry="1.00122" fill="#2B85E4"/>
<ellipse cx="73.0008" cy="4.94104" rx="1" ry="1.00122" fill="#2B85E4"/>
<ellipse cx="75.9992" cy="4.94104" rx="1" ry="1.00122" fill="#2B85E4"/>
<path d="M8.5 45.4906L8.5 51.4979" stroke="#2B85E4" stroke-width="2" stroke-linecap="round"/>
<path d="M13.5 42.4873L13.5 51.4983" stroke="#2B85E4" stroke-width="2" stroke-linecap="round"/>
<path d="M18.5 39.4834L18.5 51.498" stroke="#2B85E4" stroke-width="2" stroke-linecap="round"/>
<path d="M23.5 35.9791L23.5 51.498" stroke="#2B85E4" stroke-width="2" stroke-linecap="round"/>
<path d="M28.5 38.9824L28.5 51.4977" stroke="#2B85E4" stroke-width="2" stroke-linecap="round"/>
<path d="M33.5003 34.986L33.5003 36.6007" stroke="#2B85E4" stroke-width="2" stroke-linecap="round"/>
<path d="M38.5 32.9754L38.5 35.6076" stroke="#2B85E4" stroke-width="2" stroke-linecap="round"/>
<path d="M43.5 35.4786L43.5 47.7187" stroke="#2B85E4" stroke-width="2" stroke-linecap="round"/>
<path d="M48.5 32.9754L48.5 49.5117" stroke="#2B85E4" stroke-width="2" stroke-linecap="round"/>
<path d="M53.5 28.5002L53.5 50.0265" stroke="#2B85E4" stroke-width="2" stroke-linecap="round"/>
<path d="M58.5 26.4978L58.5 50.0265" stroke="#2B85E4" stroke-width="2" stroke-linecap="round"/>
<path d="M63.5 29.001L63.5 50.0266" stroke="#2B85E4" stroke-width="2" stroke-linecap="round"/>
<path d="M68.5 26.4978L68.5 50.0265" stroke="#2B85E4" stroke-width="2" stroke-linecap="round"/>
<path d="M73.5 23.4944L73.5 50.0267" stroke="#2B85E4" stroke-width="2" stroke-linecap="round"/>
<path d="M6.84375 40.2876L23.1211 29.263C23.5351 28.9826 24.0923 29.0514 24.4256 29.4241L27.8797 33.286C28.2283 33.6758 28.8181 33.7307 29.2327 33.4121L38.5123 26.2819C38.9271 25.9632 39.5171 26.0183 39.8656 26.4083L42.9134 29.8188C43.2477 30.193 43.8073 30.261 44.2216 29.9779L58.5419 20.1918C58.9483 19.9141 59.496 19.9737 59.8331 20.3323L62.6184 23.2953C62.9742 23.6738 63.5604 23.7164 63.9672 23.3933L70.4977 18.2077" stroke="#2B85E4" stroke-width="2" stroke-linecap="round"/>
<path d="M75.0112 14.7777L69.2508 15.665C69.1021 15.6879 69.0309 15.8608 69.1204 15.9818L72.0657 19.9648C72.1513 20.0805 72.3275 20.0705 72.3995 19.9458L75.2146 15.0755C75.2987 14.9301 75.1771 14.7522 75.0112 14.7777Z" stroke="#2B85E4" stroke-width="2" stroke-linecap="round"/>
<path d="M36 40.8C33.7909 40.8 32 42.5908 32 44.8H34C34 43.6954 34.8954 42.8 36 42.8V40.8ZM40 44.8C40 42.5908 38.2091 40.8 36 40.8V42.8C37.1046 42.8 38 43.6954 38 44.8H40ZM40 57.6V44.8H38V57.6H40ZM42 53.6C39.7909 53.6 38 55.3909 38 57.6H40C40 56.4954 40.8954 55.6 42 55.6V53.6ZM46 57.6C46 55.3909 44.2091 53.6 42 53.6V55.6C43.1046 55.6 44 56.4954 44 57.6H46ZM46 58.4V57.6H44V58.4H46ZM48 54.4C45.7909 54.4 44 56.1909 44 58.4H46C46 57.2954 46.8954 56.4 48 56.4V54.4ZM52 58.4C52 56.1909 50.2091 54.4 48 54.4V56.4C49.1046 56.4 50 57.2954 50 58.4H52ZM52 60V58.4H50V60H52ZM54 56C51.7909 56 50 57.7909 50 60H52C52 58.8954 52.8954 58 54 58V56ZM58 60C58 57.7909 56.2091 56 54 56V58C55.1046 58 56 58.8954 56 60H58ZM58 65V60H56V65H58ZM56 65V66.8H58V65H56ZM56 66.8V69H58V66.8H56ZM56 69C56 75.0751 51.0751 80 45 80V82C52.1797 82 58 76.1797 58 69H56ZM45 80C38.9249 80 34 75.0751 34 69H32C32 76.1797 37.8203 82 45 82V80ZM34 69V67.6H32V69H34ZM34 67.6V65H32V67.6H34ZM32 44.8V65H34V44.8H32Z" fill="#2B85E4"/>
</svg>
