<svg width="82" height="82" viewBox="0 0 82 82" fill="none" xmlns="http://www.w3.org/2000/svg">
<path d="M8.74999 57.1166H4C2.34315 57.1166 1 55.7735 1 54.1166V4C1 2.34315 2.34315 1 4 1H77.9999C79.6568 1 80.9999 2.34315 80.9999 4V54.1166C80.9999 55.7735 79.6568 57.1166 77.9999 57.1166H73.2499" stroke="#2B85E4" stroke-width="2" stroke-linecap="round"/>
<line x1="1" y1="8.01666" x2="80.9999" y2="8.01666" stroke="#2B85E4" stroke-width="2"/>
<ellipse cx="70.0007" cy="4.50727" rx="0.999999" ry="1.00208" fill="#2B85E4"/>
<ellipse cx="73.0007" cy="4.50727" rx="0.999999" ry="1.00208" fill="#2B85E4"/>
<ellipse cx="75.9991" cy="4.50727" rx="0.999999" ry="1.00208" fill="#2B85E4"/>
<path d="M8.49998 35.0709L8.49998 51.1042" stroke="#2B85E4" stroke-width="2" stroke-linecap="round"/>
<path d="M13.5007 27.555L13.5007 51.1039L13.5007 58.688C13.5007 58.964 13.6148 59.2278 13.816 59.4168L21.5007 66.6362" stroke="#2B85E4" stroke-width="2" stroke-linecap="round"/>
<path d="M18.4992 39.0792L18.4992 51.1042L18.4992 56.6841C18.4992 56.9601 18.6133 57.2239 18.8145 57.4129L22.4992 60.8745" stroke="#2B85E4" stroke-width="2" stroke-linecap="round"/>
<path d="M23.4999 35.5717L23.4999 54.7377C23.4999 54.8172 23.5315 54.8934 23.5876 54.9496L24.75 56.1144" stroke="#2B85E4" stroke-width="2" stroke-linecap="round"/>
<path d="M58.5 35.5717L58.5 54.7377C58.5 54.8172 58.4684 54.8934 58.4123 54.9496L57.2499 56.1144" stroke="#2B85E4" stroke-width="2" stroke-linecap="round"/>
<path d="M28.5 38.0769L28.5 51.605" stroke="#2B85E4" stroke-width="2" stroke-linecap="round"/>
<path d="M33.5 23.0458L33.5 48.5989" stroke="#2B85E4" stroke-width="2" stroke-linecap="round"/>
<path d="M38.5 32.5657L38.4999 47.0959" stroke="#2B85E4" stroke-width="2" stroke-linecap="round"/>
<path d="M43.4999 35.0709L43.4999 47.0958" stroke="#2B85E4" stroke-width="2" stroke-linecap="round"/>
<path d="M48.4999 32.5657L48.4999 48.599" stroke="#2B85E4" stroke-width="2" stroke-linecap="round"/>
<path d="M54.0091 27.0541L53.9923 51.6053" stroke="#2B85E4" stroke-width="2" stroke-linecap="round"/>
<path d="M63.5007 29.0581L63.5007 50.1018L63.5007 55.898C63.5007 56.036 63.4437 56.1679 63.3431 56.2624L59.5007 59.8721" stroke="#2B85E4" stroke-width="2" stroke-linecap="round"/>
<path d="M68.4999 22.5447L68.4999 51.104L68.4999 57.686C68.4999 57.962 68.3858 58.2258 68.1846 58.4148L60.4999 65.6342" stroke="#2B85E4" stroke-width="2" stroke-linecap="round"/>
<path d="M73.4999 27.0542L73.4999 51.1042" stroke="#2B85E4" stroke-width="2" stroke-linecap="round"/>
<ellipse cx="33.5" cy="19.5386" rx="2.5" ry="2.5052" stroke="#2B85E4" stroke-width="2" stroke-linecap="round"/>
<ellipse cx="53.4999" cy="24.5491" rx="2.5" ry="2.5052" stroke="#2B85E4" stroke-width="2" stroke-linecap="round"/>
<ellipse cx="68.4999" cy="19.0374" rx="2.5" ry="2.5052" stroke="#2B85E4" stroke-width="2" stroke-linecap="round"/>
<ellipse cx="13.5" cy="24.5491" rx="2.5" ry="2.5052" stroke="#2B85E4" stroke-width="2" stroke-linecap="round"/>
<path fill-rule="evenodd" clip-rule="evenodd" d="M55.8147 68.8788V63.4916H51.4215C51.1669 62.5057 50.779 61.5764 50.274 60.7198L53.3797 57.6141L49.571 53.8054L46.4652 56.9111C45.6087 56.406 44.6794 56.0182 43.6935 55.7636V51.3704H38.3063V55.7636C37.3205 56.0182 36.3912 56.406 35.5346 56.9111L32.4289 53.8054L28.6201 57.6141L31.7259 60.7198C31.2208 61.5764 30.8329 62.5057 30.5784 63.4916H26.1851V68.8788H30.5784C30.8329 69.8646 31.2208 70.7939 31.7259 71.6505L28.6201 74.7562L32.4289 78.5649L35.5346 75.4592C36.3898 75.9643 37.3205 76.3521 38.3063 76.6067V81H43.6935V76.6067C44.6794 76.3521 45.6087 75.9643 46.4652 75.4592L49.571 78.5649L53.3797 74.7562L50.274 71.6505C50.779 70.7953 51.1669 69.8646 51.4215 68.8788H55.8147Z" stroke="#2B85E4" stroke-width="2" stroke-linecap="round" stroke-linejoin="round"/>
<path fill-rule="evenodd" clip-rule="evenodd" d="M41.0032 61.4038C43.2349 61.4038 45.0436 63.2126 45.0436 65.4442C45.0436 67.6759 43.2349 69.4846 41.0032 69.4846C38.7716 69.4846 36.9628 67.6759 36.9628 65.4442C36.9628 63.2126 38.7716 61.4038 41.0032 61.4038V61.4038Z" stroke="#2B85E4" stroke-width="2" stroke-linecap="round" stroke-linejoin="round"/>
</svg>
