<svg width="82" height="81" viewBox="0 0 82 81" fill="none" xmlns="http://www.w3.org/2000/svg">
<path d="M17 57.1167H4C2.34314 57.1167 1 55.7735 1 54.1167V4C1 2.34314 2.34315 1 4 1H78C79.6568 1 81 2.34315 81 4V54.1167C81 55.7735 79.6568 57.1167 78 57.1167H64.5" stroke="#2B85E4" stroke-width="2" stroke-linecap="round"/>
<line x1="1" y1="8.0166" x2="81" y2="8.0166" stroke="#2B85E4" stroke-width="2"/>
<ellipse cx="70" cy="4.50727" rx="1" ry="1.00208" fill="#2B85E4"/>
<ellipse cx="73" cy="4.50727" rx="1" ry="1.00208" fill="#2B85E4"/>
<ellipse cx="76" cy="4.50727" rx="1" ry="1.00208" fill="#2B85E4"/>
<path fill-rule="evenodd" clip-rule="evenodd" d="M27.2741 25.2806C27.6203 25.6568 27.5964 26.2432 27.2207 26.5903L25.0019 28.64C24.6262 28.9871 24.041 28.9634 23.6948 28.5871C23.3486 28.2109 23.3725 27.6245 23.7482 27.2775L25.967 25.2277C26.3427 24.8807 26.9279 24.9043 27.2741 25.2806ZM22.2817 29.8925C22.6279 30.2688 22.604 30.8551 22.2283 31.2022L20.0094 33.252C19.6338 33.599 19.0485 33.5753 18.7024 33.1991C18.3562 32.8228 18.3801 32.2365 18.7558 31.8894L20.9746 29.8397C21.3503 29.4926 21.9355 29.5163 22.2817 29.8925ZM35.7008 25.4092C36.0543 25.0395 36.6398 25.0267 37.0087 25.3807L39.2171 27.5003C39.5859 27.8543 39.5984 28.441 39.2449 28.8108C38.8914 29.1805 38.3058 29.1933 37.937 28.8392L35.7286 26.7196C35.3597 26.3656 35.3473 25.7789 35.7008 25.4092ZM40.6697 30.1783C41.0232 29.8086 41.6088 29.7959 41.9776 30.1499L44.186 32.2695C44.5549 32.6235 44.5673 33.2102 44.2138 33.5799C43.8603 33.9497 43.2748 33.9624 42.9059 33.6084L40.6975 31.4888C40.3287 31.1348 40.3162 30.5481 40.6697 30.1783ZM62.7615 24.727C63.102 25.1085 63.0692 25.6944 62.6884 26.0357L60.1582 28.3032C59.7774 28.6445 59.1926 28.612 58.8521 28.2305C58.5116 27.8491 58.5444 27.2631 58.9253 26.9218L61.4554 24.6544C61.8363 24.313 62.421 24.3456 62.7615 24.727ZM57.0687 29.8288C57.4092 30.2102 57.3764 30.7962 56.9956 31.1375L54.4654 33.4049C54.0845 33.7463 53.4998 33.7137 53.1593 33.3323C52.8188 32.9508 52.8516 32.3649 53.2324 32.0236L55.7626 29.7561C56.1435 29.4148 56.7282 29.4473 57.0687 29.8288Z" fill="#2B85E4"/>
<ellipse cx="15" cy="36.0946" rx="2.5" ry="2.50521" stroke="#2B85E4" stroke-width="2" stroke-linecap="round"/>
<ellipse cx="31.5" cy="23.0672" rx="2.5" ry="2.50521" stroke="#2B85E4" stroke-width="2" stroke-linecap="round"/>
<ellipse cx="48.5" cy="36.0946" rx="2.5" ry="2.50521" stroke="#2B85E4" stroke-width="2" stroke-linecap="round"/>
<path d="M34.7406 37.16C34.7406 38.8203 33.3975 40.1662 31.7406 40.1662C30.0838 40.1662 28.7406 38.8203 28.7406 37.16C28.7406 35.4997 30.0838 34.1537 31.7406 34.1537C33.3975 34.1537 34.7406 35.4997 34.7406 37.16Z" stroke="#2B85E4" stroke-width="2" stroke-linecap="round"/>
<ellipse cx="67.2594" cy="39.6436" rx="3" ry="3.00625" stroke="#2B85E4" stroke-width="2" stroke-linecap="round"/>
<line x1="11.9142" y1="19.6235" x2="15.5052" y2="23.2145" stroke="#2B85E4" stroke-width="2" stroke-linecap="round"/>
<line x1="1" y1="-1" x2="6.07844" y2="-1" transform="matrix(-0.707107 0.707107 0.707107 0.707107 17 19.6235)" stroke="#2B85E4" stroke-width="2" stroke-linecap="round"/>
<line x1="47.1548" y1="15.8766" x2="50.7458" y2="19.4676" stroke="#2B85E4" stroke-width="2" stroke-linecap="round"/>
<line x1="1" y1="-1" x2="6.07844" y2="-1" transform="matrix(-0.707107 0.707107 0.707107 0.707107 52.241 15.8766)" stroke="#2B85E4" stroke-width="2" stroke-linecap="round"/>
<path d="M69.5452 18.5166L63.6479 20.3295C63.5785 20.3509 63.5541 20.4367 63.602 20.4913L66.6979 24.0212C66.7441 24.0739 66.8289 24.0638 66.8615 24.0016L69.663 18.6587C69.7042 18.5799 69.6301 18.4905 69.5452 18.5166Z" fill="#2B85E4" stroke="#2B85E4" stroke-width="2" stroke-linecap="round"/>
<rect x="28.2006" y="49.8" width="25.6" height="25.6" rx="3" stroke="#2B85E4" stroke-width="2" stroke-linecap="round"/>
<rect x="32.2006" y="53.8" width="17.6" height="17.6" rx="1" stroke="#2B85E4" stroke-width="2" stroke-linecap="round"/>
<path d="M35.8006 65.077C35.8006 65.4786 36.1119 65.8 36.5136 65.8C36.835 65.8 37.0961 65.6192 37.2267 65.318L37.7188 64.1632H40.812L41.284 65.2678C41.4246 65.5891 41.6657 65.8 42.0272 65.8C42.439 65.8 42.7603 65.4686 42.7603 65.0569C42.7603 64.9565 42.7302 64.856 42.68 64.7456L40.2295 59.2125C40.0588 58.8309 39.7575 58.6 39.3357 58.6H39.2453C38.8235 58.6 38.5122 58.8309 38.3414 59.2125L35.891 64.7456C35.8407 64.856 35.8006 64.9665 35.8006 65.077ZM38.2912 62.7975L39.2654 60.4778L40.2396 62.7975H38.2912Z" fill="#2B85E4"/>
<path d="M44.1334 65.0268C44.1334 65.4586 44.4748 65.8 44.9067 65.8C45.3385 65.8 45.68 65.4586 45.68 65.0268V59.4234C45.68 58.9916 45.3385 58.6502 44.9067 58.6502C44.4748 58.6502 44.1334 58.9916 44.1334 59.4234V65.0268Z" fill="#2B85E4"/>
<line x1="1" y1="-1" x2="4.92592" y2="-1" transform="matrix(1 4.7354e-08 4.0349e-08 -1 23.0746 55.8149)" stroke="#2B85E4" stroke-width="2" stroke-linecap="round"/>
<line x1="1" y1="-1" x2="4.92592" y2="-1" transform="matrix(1 4.7354e-08 4.0349e-08 -1 23.0746 59.7656)" stroke="#2B85E4" stroke-width="2" stroke-linecap="round"/>
<line x1="1" y1="-1" x2="4.92592" y2="-1" transform="matrix(1 4.7354e-08 4.0349e-08 -1 23.0746 63.7161)" stroke="#2B85E4" stroke-width="2" stroke-linecap="round"/>
<line x1="1" y1="-1" x2="4.92592" y2="-1" transform="matrix(1 4.79459e-08 3.98508e-08 -1 23.0746 67.6667)" stroke="#2B85E4" stroke-width="2" stroke-linecap="round"/>
<line x1="1" y1="-1" x2="4.92592" y2="-1" transform="matrix(1 4.7354e-08 4.0349e-08 -1 53.0746 55.8149)" stroke="#2B85E4" stroke-width="2" stroke-linecap="round"/>
<line x1="1" y1="-1" x2="4.92592" y2="-1" transform="matrix(1 4.7354e-08 4.0349e-08 -1 53.0746 59.7656)" stroke="#2B85E4" stroke-width="2" stroke-linecap="round"/>
<line x1="1" y1="-1" x2="4.92592" y2="-1" transform="matrix(1 4.7354e-08 4.0349e-08 -1 53.0746 63.7161)" stroke="#2B85E4" stroke-width="2" stroke-linecap="round"/>
<line x1="1" y1="-1" x2="4.92592" y2="-1" transform="matrix(1 4.79459e-08 3.98508e-08 -1 53.0746 67.6667)" stroke="#2B85E4" stroke-width="2" stroke-linecap="round"/>
<line x1="46.8156" y1="49.5258" x2="46.8156" y2="45.5999" stroke="#2B85E4" stroke-width="2" stroke-linecap="round"/>
<line x1="42.8156" y1="49.5258" x2="42.8156" y2="45.5999" stroke="#2B85E4" stroke-width="2" stroke-linecap="round"/>
<line x1="38.8156" y1="49.5258" x2="38.8156" y2="45.5999" stroke="#2B85E4" stroke-width="2" stroke-linecap="round"/>
<line x1="34.8156" y1="49.5258" x2="34.8156" y2="45.5999" stroke="#2B85E4" stroke-width="2" stroke-linecap="round"/>
<line x1="46.4009" y1="79.9999" x2="46.4009" y2="75.9999" stroke="#2B85E4" stroke-width="2" stroke-linecap="round"/>
<line x1="42.4001" y1="79.9999" x2="42.4001" y2="75.9999" stroke="#2B85E4" stroke-width="2" stroke-linecap="round"/>
<line x1="38.4009" y1="79.9999" x2="38.4009" y2="75.9999" stroke="#2B85E4" stroke-width="2" stroke-linecap="round"/>
<line x1="34.4009" y1="79.9999" x2="34.4009" y2="75.9999" stroke="#2B85E4" stroke-width="2" stroke-linecap="round"/>
</svg>
