<svg xmlns="http://www.w3.org/2000/svg" viewBox="0 0 400 400"><style>.st6{fill:#00aabd}.st7{fill:#204479}</style><g id="Layer_2"><path class="st6" d="M174.9 161.5v17h67.2L75.5 301.9l10.1 13.7 170.8-126.5v65.6h17v-93.2z"/><path class="st6" d="M57 183.1h60.4v139.8H57zm85.8-47.7h60.4v187.5h-60.4zm85.8-58.3H289v245.8h-60.4z"/><path class="st7" d="M203.5 161.5h-28.7v17h30c-.9-4.6-1.4-9.3-1.4-14.2.1-.9.1-1.9.1-2.8zm-128 140.4l10.1 13.7 138-102.3c-4-4-7.5-8.6-10.4-13.5L75.5 301.9zM256.4 232v22.7h17V234h-.1c-5.9.1-11.5-.6-16.9-2z"/><path class="st7" d="M343 164.3c0-38.5-31.2-69.8-69.8-69.8-37.6 0-68.2 29.7-69.7 66.9h69.8V234c38.5 0 69.7-31.2 69.7-69.7z"/><path class="st7" d="M204.9 178.5c1.6 7.7 4.4 14.9 8.3 21.4l28.9-21.4h-37.2zm18.7 34.8c8.9 9 20.1 15.5 32.8 18.7v-43l-32.8 24.3z"/><path transform="rotate(-38.048 269.875 132.306)" class="st6" d="M264.9 116.7h10v31.2h-10z"/><path transform="rotate(-37.618 307.255 142.45)" class="st6" d="M296.5 137.5h21.4v10h-21.4z"/><path transform="rotate(-38.769 305.616 179.403)" class="st6" d="M300.6 163.8h10V195h-10z"/></g></svg>