<svg version="1.1" id="Layer_1" xmlns="http://www.w3.org/2000/svg" x="0" y="0" viewBox="0 0 400 400" xml:space="preserve"><style>.st1{fill:#204479}</style><path d="M184.6 238.2v-.2c.1-1 .1-2 .2-3.1v-.3c.1-1 .2-2 .4-2.9v-.3c.2-1 .3-2 .5-2.9v-.2c1.1-5.2 2.8-10.2 5.1-15 0-.1.1-.1.1-.2.4-.8.8-1.7 1.3-2.5.1-.2.2-.3.3-.5l1.2-2.1c.1-.2.3-.5.5-.7.4-.6.7-1.2 1.1-1.7.2-.3.4-.6.7-1 .3-.5.6-.9 1-1.3.3-.4.6-.8.9-1.3.2-.3.4-.5.6-.8.5-.6.9-1.1 1.4-1.7-12-14.2-29.9-23.2-49.9-23.3-36 .1-65.2 29.3-65.3 65.3v70.9h99.7v-70.9c.1-1 .2-2.1.2-3.3zm65.3-62c-20 .1-37.9 9.1-49.9 23.3 10 11.7 15.5 26.7 15.5 42.1v70.9h99.7v-70.9c-.1-36.1-29.3-65.3-65.3-65.4z" fill="#00aabd"/><circle class="st1" cx="150.1" cy="124.5" r="36.9"/><circle class="st1" cx="249.9" cy="124.5" r="36.9"/><path class="st1" d="M200 199.5c-.5.6-.9 1.1-1.4 1.7-.2.3-.4.5-.6.8-.3.4-.6.8-.9 1.3-.3.4-.6.9-1 1.3-.2.3-.4.6-.7 1-.4.6-.8 1.1-1.1 1.7-.2.2-.3.5-.5.7l-1.2 2.1c-.1.2-.2.3-.3.5-.4.8-.9 1.6-1.3 2.5 0 .1-.1.1-.1.2-2.3 4.8-4 9.8-5.1 15v.2c-.2 1-.4 1.9-.5 2.9v.3c-.1 1-.3 2-.4 2.9v.3c-.1 1-.2 2-.2 3.1v.2c-.1 1.1-.1 2.2-.1 3.3v70.9h30.9v-70.9c0-15.4-5.5-30.3-15.5-42z"/></svg>