<svg width="124" height="40" viewBox="0 0 124 40" fill="none" xmlns="http://www.w3.org/2000/svg">
<path d="M17.26 34.5603C18.1476 34.585 19.0319 34.4403 19.8653 34.1339C20.5277 33.8824 21.1204 33.4764 21.5944 32.9497C22.0541 32.4183 22.3899 31.7913 22.5773 31.1141C22.787 30.3705 22.8907 29.601 22.8852 28.8284V11.1711C22.8907 10.3985 22.787 9.62901 22.5773 8.88543C22.3819 8.22922 22.0465 7.62317 21.5944 7.10903C21.1143 6.57851 20.513 6.17217 19.8417 5.92477C19 5.61821 18.108 5.47356 17.2126 5.49843H1V0.00344184H16.6915C18.4195 -0.0306587 20.1432 0.18879 21.8075 0.654787C23.1589 1.03374 24.3851 1.76537 25.3603 2.77462C26.3414 3.85969 27.0409 5.16918 27.3973 6.58795C27.8676 8.4572 28.0867 10.3808 28.0486 12.308V27.7034C28.0828 29.5913 27.8637 31.4753 27.3973 33.305C27.0369 34.7257 26.338 36.0381 25.3603 37.1301C24.3857 38.1531 23.1611 38.9041 21.8075 39.3092C20.1481 39.8019 18.4221 40.0337 16.6915 39.9961H1V13.6106H6.12787V34.5603H17.26ZM1 12.308V6.88402H16.6915C17.4992 6.85546 18.3044 6.98832 19.06 7.27483C19.6263 7.50388 20.1239 7.87506 20.5048 8.35251C20.8678 8.83603 21.1186 9.39429 21.2391 9.98679C21.377 10.6449 21.4445 11.3158 21.4404 11.9882V27.9995C21.4536 28.7937 21.3862 29.5873 21.2391 30.368C21.1336 30.9393 20.8896 31.4761 20.5285 31.9312C20.1547 32.3607 19.659 32.6664 19.1074 32.8076C18.3338 33.0038 17.5366 33.0915 16.7389 33.0681H7.59635V13.6106H13.3045V26.6376C13.3045 27.3481 13.644 27.6994 14.323 27.6915H15.2112C15.5027 27.7045 15.7876 27.6024 16.0046 27.4073C16.1077 27.3082 16.1884 27.1883 16.2415 27.0556C16.2946 26.9229 16.3188 26.7804 16.3125 26.6376V13.3738C16.3188 13.231 16.2946 13.0885 16.2415 12.9557C16.1884 12.823 16.1077 12.7031 16.0046 12.604C15.7876 12.4089 15.5027 12.3069 15.2112 12.3198L1 12.308Z" fill="url(#paint0_diamond)"/>
<path d="M50.5023 39.9724L28.5815 0.00341797H34.0055L55.9262 39.9724H50.5023ZM41.5374 26.1165L33.9936 39.9724H28.5815L38.7662 21.0241L41.5374 26.1165ZM57.3829 39.9724L35.474 0.00341797H40.9334L62.8068 39.9724H57.3829ZM45.0428 32.5115L40.9334 39.9724H35.474L42.2835 27.502L45.0428 32.5115ZM46.31 7.25112L50.4668 0.00341797H55.9262L49.1167 12.4737L46.31 7.25112ZM49.8628 13.8475L57.3947 0.00341797H62.8186L52.634 18.9517L49.8628 13.8475Z" fill="url(#paint1_diamond)"/>
<path d="M88.4344 39.9724H73.0389C71.5684 39.97 70.1165 39.6424 68.7874 39.0131C67.4253 38.3822 66.1955 37.498 65.1636 36.4077C64.067 35.2773 63.1914 33.9518 62.5819 32.4996C61.9527 30.967 61.6347 29.3245 61.6463 27.6678V12.2724C61.6394 10.6276 61.9574 8.99772 62.5819 7.47613C63.1756 6.02331 64.0351 4.69395 65.1162 3.55621C66.1491 2.47017 67.3789 1.59008 68.74 0.962672C70.0693 0.333704 71.521 0.00614818 72.9916 0.00341797L88.387 0.00341797V5.42735H73.6429C72.6846 5.40856 71.7353 5.61545 70.8717 6.03133C70.0845 6.41527 69.3834 6.95516 68.8111 7.61824C68.2531 8.27655 67.8197 9.03101 67.5321 9.84466C67.2401 10.6334 67.0878 11.4669 67.0821 12.3079V27.7034C67.0878 28.5444 67.2401 29.3779 67.5321 30.1666C67.8197 30.9803 68.2531 31.7347 68.8111 32.3931C69.3873 33.0429 70.088 33.5704 70.8717 33.9444C71.7345 34.364 72.6837 34.5749 73.6429 34.5603H88.4344V39.9724ZM74.9101 27.6678H88.4344V33.0918H74.2232C73.3597 33.1138 72.5045 32.9183 71.7362 32.5233C71.0543 32.1639 70.4568 31.6633 69.9835 31.0548C69.517 30.4524 69.1639 29.7703 68.9414 29.0416C68.6846 28.3379 68.5368 27.599 68.5032 26.8507V13.1251C68.5075 12.3856 68.6233 11.651 68.8466 10.946C69.0692 10.2173 69.4223 9.53518 69.8888 8.93277C70.376 8.31928 70.99 7.81835 71.6889 7.46429C72.4573 7.06977 73.3123 6.87432 74.1758 6.89584H88.387V12.3198H74.9101C74.8103 12.3299 74.7136 12.3603 74.626 12.4092C74.5384 12.458 74.4618 12.5243 74.4008 12.604C74.218 12.8174 74.1246 13.0932 74.1403 13.3738V26.6138C74.1403 27.3244 74.3179 27.6757 74.6732 27.6678H74.9101Z" fill="url(#paint2_diamond)"/>
<path d="M110.971 39.9724L89.05 0.00341797H94.474L116.395 39.9724H110.971ZM102.006 26.1165L94.4621 39.9724H89.05L99.2347 21.0241L102.006 26.1165ZM117.851 39.9724L95.9425 0.00341797H101.402L123.287 39.9724H117.851ZM105.511 32.5115L101.402 39.9724H95.9425L102.752 27.502L105.511 32.5115ZM106.778 7.25112L110.935 0.00341797H116.395L109.585 12.4737L106.778 7.25112ZM110.331 13.8475L117.851 0.00341797H123.275L113.091 18.9517L110.331 13.8475Z" fill="url(#paint3_diamond)"/>
<defs>
<radialGradient id="paint0_diamond" cx="0" cy="0" r="1" gradientUnits="userSpaceOnUse" gradientTransform="translate(14.5264 20.5714) rotate(90) scale(80.5714 204.255)">
<stop stop-color="#0098ED"/>
<stop offset="1" stop-color="#0047FF"/>
</radialGradient>
<radialGradient id="paint1_diamond" cx="0" cy="0" r="1" gradientUnits="userSpaceOnUse" gradientTransform="translate(45.7001 20.5589) rotate(90) scale(80.5089 258.498)">
<stop stop-color="#0098ED"/>
<stop offset="1" stop-color="#0047FF"/>
</radialGradient>
<radialGradient id="paint2_diamond" cx="0" cy="0" r="1" gradientUnits="userSpaceOnUse" gradientTransform="translate(75.0402 20.5589) rotate(90) scale(80.5089 202.258)">
<stop stop-color="#0098ED"/>
<stop offset="1" stop-color="#0047FF"/>
</radialGradient>
<radialGradient id="paint3_diamond" cx="0" cy="0" r="1" gradientUnits="userSpaceOnUse" gradientTransform="translate(106.169 20.5589) rotate(90) scale(80.5089 258.498)">
<stop stop-color="#0098ED"/>
<stop offset="1" stop-color="#0047FF"/>
</radialGradient>
</defs>
</svg>
