<svg width="200" height="40" viewBox="0 0 200 40" fill="none" xmlns="http://www.w3.org/2000/svg">
<g id="playmex-logo">
<g id="symbol">
<path id="Vector" d="M9.66498 18.894C9.66498 18.516 9.81452 18.1535 10.0807 17.8862C10.3469 17.6189 10.7079 17.4688 11.0844 17.4688H14.4199C14.7964 17.4688 15.1574 17.3186 15.4236 17.0513C15.6898 16.784 15.8393 16.4215 15.8393 16.0435V10.1351C15.8396 9.88955 15.7767 9.64807 15.6568 9.43408C15.5368 9.22009 15.3638 9.04087 15.1545 8.91378L7.63524 4.35075C6.03858 3.38144 4 4.5358 4 6.40927V34.5906C4 36.464 6.03858 37.6188 7.63524 36.6491L8.98017 35.8326C9.18943 35.7056 9.36244 35.5263 9.48242 35.3123C9.6024 35.0984 9.66529 34.8569 9.66498 34.6113V18.894Z" fill="url(#paint0_linear)"/>
<path id="Vector_2" d="M30.8437 18.4417L22.4114 13.322C21.4657 12.7476 20.2578 13.433 20.2578 14.5434V20.4806C20.2578 20.8586 20.1083 21.2211 19.8421 21.4884C19.5759 21.7557 19.2149 21.9059 18.8385 21.9059H15.5029C15.1264 21.9059 14.7654 22.056 14.4992 22.3233C14.233 22.5906 14.0835 22.9531 14.0835 23.3311V30.2073C14.0835 31.3176 15.2913 32.0012 16.2371 31.4287L30.8437 22.5606C32.3854 21.6227 32.3854 19.3773 30.8437 18.4417Z" fill="url(#paint1_linear)"/>
</g>
<g id="PLAYMEX">
<path d="M64.4826 17.26C64.4826 18.58 64.2501 19.701 63.7851 20.6229C63.3202 21.5238 62.6861 22.2571 61.883 22.8229C61.101 23.3676 60.1816 23.7657 59.1249 24.0171C58.0681 24.2476 56.9374 24.3629 55.7327 24.3629H53.0697C52.8161 24.3629 52.5941 24.4467 52.4039 24.6143C52.2137 24.7819 52.1186 25.0124 52.1186 25.3057V31.12C52.1186 31.3295 52.0341 31.5181 51.865 31.6857C51.717 31.8324 51.5374 31.9057 51.326 31.9057H46.7926C46.5812 31.9057 46.391 31.8324 46.2219 31.6857C46.074 31.5181 46 31.3295 46 31.12V12.7343C46 12.2943 46.0845 11.9067 46.2536 11.5714C46.4227 11.2152 46.6446 10.9219 46.9194 10.6914C47.1941 10.461 47.49 10.2933 47.807 10.1886C48.1241 10.0629 48.4411 10 48.7581 10H55.7327C56.9374 10 58.0681 10.1362 59.1249 10.4086C60.2028 10.66 61.1327 11.079 61.9147 11.6657C62.7178 12.2314 63.3413 12.9752 63.7851 13.8971C64.2501 14.819 64.4826 15.94 64.4826 17.26ZM58.3323 17.2286C58.3323 16.3486 58.0893 15.6781 57.6031 15.2171C57.1382 14.7352 56.4619 14.4943 55.5742 14.4943H50.2164C50.3855 14.4943 50.5757 14.5362 50.7871 14.62C50.9984 14.6829 51.1887 14.7876 51.3577 14.9343C51.548 15.081 51.7065 15.2695 51.8333 15.5C51.9601 15.7095 52.0235 15.9505 52.0235 16.2229V18.9257C52.0235 19.219 52.1186 19.46 52.3088 19.6486C52.5202 19.8162 52.7527 19.9 53.0063 19.9H55.5742C56.4407 19.9 57.117 19.6695 57.6031 19.2086C58.0893 18.7476 58.3323 18.0876 58.3323 17.2286Z" fill="white"/>
<path d="M67.4218 31.12V12.7029C67.4218 12.3048 67.4958 11.9381 67.6437 11.6029C67.8128 11.2676 68.0241 10.9848 68.2778 10.7543C68.5525 10.5238 68.8484 10.3457 69.1654 10.22C69.5036 10.0733 69.8417 10 70.1799 10H72.6527C72.8852 10 73.0648 10.0733 73.1917 10.22C73.3396 10.3667 73.4136 10.5552 73.4136 10.7857V26.0286C73.4136 26.1962 73.4981 26.4057 73.6672 26.6571C73.8363 26.8876 74.0793 27.0029 74.3964 27.0029H82.8926C83.1251 27.0029 83.3153 27.0762 83.4633 27.2229C83.6324 27.3486 83.7169 27.5371 83.7169 27.7886V31.12C83.7169 31.3714 83.6324 31.5705 83.4633 31.7171C83.3153 31.8429 83.1251 31.9057 82.8926 31.9057H68.2143C68.0241 31.9057 67.8445 31.8219 67.6754 31.6543C67.5063 31.4867 67.4218 31.3086 67.4218 31.12Z" fill="white"/>
<path d="M87.1593 31.8114C87.0325 31.6438 86.9691 31.4867 86.9691 31.34C86.9691 31.1933 86.9797 31.099 87.0008 31.0571L94.3558 11.0057C94.5883 10.3981 95.011 10.0943 95.6239 10.0943H100.538C101.151 10.0943 101.573 10.3981 101.806 11.0057L109.161 31.0571C109.182 31.099 109.193 31.1933 109.193 31.34C109.193 31.5076 109.119 31.6648 108.971 31.8114C108.844 31.9371 108.696 32 108.527 32H104.437C103.909 32 103.55 31.7695 103.359 31.3086L101.711 26.8771C100.95 27.1705 100.179 27.4114 99.3965 27.6C98.6145 27.7886 97.8537 27.9352 97.1139 28.04C96.3953 28.1238 95.719 28.1867 95.085 28.2286C94.4509 28.2495 93.9014 28.26 93.4364 28.26C93.1405 28.26 92.8869 28.26 92.6756 28.26C92.4853 28.26 92.3374 28.2495 92.2317 28.2286C92.6122 28.2914 92.9186 28.501 93.1511 28.8571C93.4047 29.2133 93.4364 29.6324 93.2462 30.1143L92.8024 31.3086C92.6122 31.7695 92.2529 32 91.7245 32H87.6349C87.4869 32 87.3284 31.9371 87.1593 31.8114ZM95.2118 23.7657C95.8036 23.7238 96.4165 23.6505 97.0505 23.5457C97.6 23.4619 98.1707 23.3467 98.7625 23.2C99.3754 23.0324 99.9566 22.8019 100.506 22.5086L98.065 15.5943L95.2118 23.7657Z" fill="white"/>
<path d="M116.476 31.1829V25.5886C116.476 25.2533 116.434 24.9181 116.35 24.5829C116.265 24.2267 116.159 23.9333 116.032 23.7029L109.185 11.0686C109.121 10.9638 109.09 10.8486 109.09 10.7229C109.09 10.5552 109.153 10.4086 109.28 10.2829C109.428 10.1362 109.586 10.0629 109.755 10.0629H113.908C114.141 10.0629 114.363 10.1257 114.574 10.2514C114.807 10.3562 114.965 10.5238 115.05 10.7543C115.811 12.1162 116.497 13.3419 117.11 14.4314C117.47 15.1019 117.755 15.6362 117.966 16.0343C118.199 16.4114 118.4 16.7676 118.569 17.1029C118.759 17.4381 118.917 17.721 119.044 17.9514C119.192 18.1819 119.277 18.3181 119.298 18.36C119.34 18.4229 119.393 18.4543 119.456 18.4543C119.52 18.4543 119.562 18.4229 119.583 18.36C119.604 18.3181 119.678 18.1819 119.805 17.9514C119.953 17.7 120.122 17.3962 120.312 17.04C120.524 16.6838 120.756 16.2752 121.01 15.8143C121.263 15.3533 121.517 14.8924 121.771 14.4314C122.384 13.3419 123.07 12.1162 123.831 10.7543C124.106 10.2933 124.487 10.0629 124.973 10.0629H129.126C129.295 10.0629 129.443 10.1362 129.57 10.2829C129.717 10.4086 129.791 10.5552 129.791 10.7229C129.791 10.8486 129.76 10.9638 129.696 11.0686C128.47 13.3314 127.361 15.3638 126.368 17.1657C125.776 18.2762 125.3 19.1562 124.941 19.8057C124.603 20.4343 124.286 21.0314 123.99 21.5971C123.694 22.1419 123.44 22.6133 123.229 23.0114C123.018 23.3886 122.891 23.6086 122.849 23.6714C122.701 23.9438 122.584 24.2476 122.5 24.5829C122.436 24.8971 122.405 25.201 122.405 25.4943V31.1829C122.405 31.4343 122.331 31.6333 122.183 31.78C122.035 31.9057 121.834 31.9686 121.58 31.9686H117.269C117.036 31.9686 116.846 31.8952 116.698 31.7486C116.55 31.6019 116.476 31.4133 116.476 31.1829Z" fill="white"/>
<path d="M153.682 10.1257C153.915 10.1257 154.105 10.199 154.253 10.3457C154.401 10.4714 154.475 10.66 154.475 10.9114V31.2457C154.475 31.4762 154.401 31.6543 154.253 31.78C154.105 31.9267 153.915 32 153.682 32H149.656C149.445 32 149.254 31.9267 149.085 31.78C148.937 31.6124 148.864 31.4343 148.864 31.2457V20.4971C148.864 20.3924 148.811 20.34 148.705 20.34C148.642 20.34 148.589 20.361 148.546 20.4029L145.471 26.0286C145.197 26.5105 144.827 26.7514 144.362 26.7514H142.65C142.206 26.7514 141.836 26.5105 141.54 26.0286L138.497 20.4343C138.454 20.3714 138.402 20.34 138.338 20.34C138.233 20.34 138.18 20.3924 138.18 20.4971V31.2457C138.18 31.4552 138.095 31.6333 137.926 31.78C137.778 31.9267 137.588 32 137.355 32H133.361C133.128 32 132.938 31.9267 132.79 31.78C132.642 31.6543 132.568 31.4762 132.568 31.2457V12.7343C132.568 12.2943 132.663 11.9067 132.854 11.5714C133.044 11.2362 133.276 10.9638 133.551 10.7543C133.826 10.5448 134.111 10.3876 134.407 10.2829C134.703 10.1781 134.957 10.1257 135.168 10.1257H136.943C137.451 10.1257 137.831 10.3457 138.085 10.7857L143.347 20.1829C143.368 20.2457 143.421 20.2771 143.506 20.2771C143.569 20.2771 143.622 20.2457 143.664 20.1829L148.959 10.7857C149.212 10.3457 149.593 10.1257 150.1 10.1257H153.682Z" fill="white"/>
<path d="M158.82 31.1514V12.7657C158.82 11.9695 159.095 11.32 159.644 10.8171C160.194 10.2933 160.838 10.0314 161.578 10.0314H174.513C174.745 10.0314 174.935 10.1152 175.083 10.2829C175.252 10.4295 175.337 10.6181 175.337 10.8486V13.96C175.337 14.1905 175.263 14.3686 175.115 14.4943C174.967 14.641 174.766 14.7143 174.513 14.7143H162.814C163.322 14.7143 163.734 14.8924 164.051 15.2486C164.389 15.6048 164.558 15.9924 164.558 16.4114V17.7314C164.558 17.9619 164.632 18.1819 164.78 18.3914C164.949 18.601 165.192 18.7057 165.509 18.7057H172.42C172.653 18.7057 172.843 18.7895 172.991 18.9571C173.16 19.1038 173.245 19.2924 173.245 19.5229V22.3514C173.245 22.5819 173.16 22.781 172.991 22.9486C172.843 23.0952 172.653 23.1686 172.42 23.1686H162.814C163.3 23.1686 163.713 23.3362 164.051 23.6714C164.389 24.0067 164.558 24.3838 164.558 24.8029V26.28C164.558 26.5105 164.643 26.7305 164.812 26.94C164.981 27.1495 165.213 27.2543 165.509 27.2543H174.766C175.316 27.2543 175.59 27.5267 175.59 28.0714V31.1514C175.59 31.4029 175.506 31.6019 175.337 31.7486C175.189 31.8743 174.999 31.9371 174.766 31.9371H159.612C159.401 31.9371 159.211 31.8638 159.042 31.7171C158.894 31.5495 158.82 31.361 158.82 31.1514Z" fill="white"/>
<path d="M199.354 31.8114C199.206 31.9371 199.048 32 198.878 32H193.901C193.457 32 193.087 31.7905 192.792 31.3714L188.924 25.8086C188.903 25.7457 188.85 25.7143 188.765 25.7143C188.681 25.7143 188.617 25.7457 188.575 25.8086L184.803 31.3714C184.507 31.7905 184.137 32 183.693 32H178.874C178.726 32 178.568 31.9371 178.399 31.8114C178.272 31.6438 178.208 31.4867 178.208 31.34C178.208 31.1933 178.24 31.0781 178.303 30.9943L185.088 20.9371C185.151 20.8743 185.162 20.801 185.12 20.7171L178.842 11.1314C178.779 11.0057 178.747 10.88 178.747 10.7543C178.747 10.5867 178.811 10.44 178.938 10.3143C179.085 10.1676 179.244 10.0943 179.413 10.0943H184.232C184.718 10.0943 185.098 10.3248 185.373 10.7857L188.765 15.94C188.786 16.0238 188.85 16.0657 188.956 16.0657C189.04 16.0657 189.093 16.0343 189.114 15.9714L192.633 10.7857C192.908 10.3248 193.278 10.0943 193.743 10.0943H198.34C198.509 10.0943 198.657 10.1676 198.783 10.3143C198.931 10.44 199.005 10.5867 199.005 10.7543C199.005 10.88 198.974 11.0057 198.91 11.1314L192.601 20.6543C192.538 20.7171 192.538 20.7905 192.601 20.8743L199.449 30.9629C199.513 31.0886 199.544 31.2143 199.544 31.34C199.544 31.4867 199.481 31.6438 199.354 31.8114Z" fill="white"/>
</g>
</g>
<defs>
<linearGradient id="paint0_linear" x1="9.91966" y1="4" x2="9.91966" y2="37" gradientUnits="userSpaceOnUse">
<stop stop-color="#1EC373"/>
<stop offset="1" stop-color="#18DF7F"/>
</linearGradient>
<linearGradient id="paint1_linear" x1="23.0417" y1="13.1144" x2="23.0417" y2="31.6355" gradientUnits="userSpaceOnUse">
<stop stop-color="#E84B42"/>
<stop offset="1" stop-color="#E2413D"/>
</linearGradient>
</defs>
</svg>
