<svg xmlns="http://www.w3.org/2000/svg" xmlns:xlink="http://www.w3.org/1999/xlink" width="24" height="24"><defs><path id="a" d="M1431 489c0-6.627 5.373-12 12-12s12 5.373 12 12-5.373 12-12 12-12-5.373-12-12z"/><path id="b" d="M1440.333 485H1443s.667-.667.667-1.333c0-.667-.176-2-2-2-1.825 0-2 1.333-2 2 0 0 0 .666.666 1.333zm6 4.667a.667.667 0 1 1 1.334 0 .667.667 0 0 1-1.334 0zm-6 6l.188-1.066s1.134.35 1.812.399c.68.048 1.752-.145 1.752-.145l.248.812h2.835l-.436-1.834s.66-.42.935-.678c.275-.257.666-.822.666-.822h1.334l.666-2.666-1.656-.667s-.344-1.105-.924-1.487c.58-.513.58-2.513.58-2.513l-2 1.234s-.346-.276-.746-.495c-.4-.219-.836-.37-.836-.37l-.666.964H1439l-.215-.666c-1.785 1.144-2.18 2.666-2.18 2.666s-.938 0-.938.667.666.667.666.667c0 1.333.667 2 .667 2l.667 4z"/></defs><use fill="#0c4a31" xlink:href="#a" transform="translate(-1431 -477)"/><use fill="#fff" xlink:href="#b" transform="translate(-1431 -477)"/></svg>