<svg xmlns="http://www.w3.org/2000/svg" xmlns:xlink="http://www.w3.org/1999/xlink" width="326" height="32" viewBox="0 0 326 32"><defs><path id="dqyga" d="M839.087 2168.621c1.084-.257 1.524-.739 1.321-1.478-.203-.738-.644-1.124-1.355-1.22-.712-.096-1.39.064-1.966.546-.61.45-1.287 1.22-2.1 2.248 1.66.16 3.049.16 4.1-.096zm-28.533 8.062c-.982-1.349-1.626-2.441-1.897-3.34-.271-.9-.271-1.863 0-2.891.27-1.06.644-1.767 1.084-2.152.44-.386.949-.643 1.525-.803.576-.16 1.491-.097 2.71.193 1.22.289 2.61.481 4.101.578 1.491.064 3.118.064 4.778-.065 1.694-.128 3.423-.224 5.185-.32 1.762-.097 3.185-.483 4.235-1.125 1.05-.642 2.101-1.349 3.118-2.056 1.017-.706 2.236-1.284 3.66-1.702 1.253.193 2.1.385 2.575.642.474.257.983.707 1.457 1.35.508.642.813 1.573.915 2.794-.271 1.349-.915 2.248-2 2.634-1.084.385-2.44.642-4.1.738-1.66.097-3.591-.032-5.862-.353-3.05 2.441-5.591 4.497-7.624 6.231-2.033 1.735-3.185 2.827-3.457 3.309 3.626.257 5.592.546 5.863.835.27.289.474.739.677 1.317l-.813.77-8.573-.288c-2.948 2.376-5.252 4.11-6.98 5.17a68.484 68.484 0 0 1-5.727 3.149c-2.101 1.027-3.863 1.606-5.286 1.702-1.153-.096-1.932-.482-2.373-1.092-.406-.61-.677-1.83-.745-3.63.271-1.51.712-2.698 1.322-3.533.61-.835 1.457-1.349 2.473-1.574 1.017-.225 1.83-.032 2.406.514.576.546.78 1.124.644 1.767-.136.61-.712.931-1.694.963-.983.033-1.66.386-2.033 1.092-.373.707-.373 1.35.033 1.928.407.578 1.119.674 2.17.289 1.05-.354 2.608-1.124 4.71-2.249 2.1-1.124 4.574-2.762 7.386-4.882-1.152 0-1.931-.064-2.338-.193-.406-.128-.61-.32-.677-.61-.034-.289.338-.61 1.118-.963.813-.354 1.525-.514 2.135-.514h2.643c2.643-2.441 6.303-5.59 10.945-9.476-3.93.225-6.879.29-8.777.225-1.897-.064-3.286-.225-4.134-.385a6.876 6.876 0 0 0-2.406-.129c-.745.097-1.22.45-1.423 1.06-.203.61-.101 1.156.373 1.702.474.547 1.118.9 1.965 1.093.848.192 1.254.674 1.22 1.445-.034.77-.44 1.253-1.254 1.51-.711.192-1.83 0-3.253-.675z"/><path id="dqygb" d="M823 2189.807c1.51-.783 3.052-1.958 4.66-3.524s2.855-2.53 3.742-2.831c.886-.301 1.87-.452 2.92-.452.394.03.755.09 1.05.241.296.15.493.392.558.723.066.331.066.723-.032 1.144-.099.422-.361.934-.82 1.506a6.675 6.675 0 0 1-1.609 1.506c-.623.422-1.05.784-1.313 1.115-.23.331-.262.663-.065.994.197.331.984.361 2.363.09 1.378-.27 2.395-.512 3.052-.723.656-.21 1.378-.482 2.1-.813l.394 1.416c-1.674.723-3.15 1.325-4.43 1.807-1.28.482-2.659.843-4.103.994-.952 0-1.674-.03-2.199-.12-.492-.06-.951-.272-1.378-.573-.427-.301-.69-.693-.788-1.144-.098-.452-.033-.904.263-1.356.262-.452.689-.843 1.214-1.265.525-.422 1.116-.723 1.74-.964.623-.24 1.148-.572 1.575-1.024.46-.452.558-.783.328-.994-.23-.24-.558-.301-.985-.21-.426.09-1.444.873-3.084 2.379-1.609 1.476-3.217 2.53-4.858 3.163z"/><path id="dqygc" d="M841.122 2189.89c.35.519.797.762 1.306.793.51.03 1.02-.122 1.466-.427.478-.305 1.02-.58 1.625-.854.637-.274 1.242-.579 1.847-.975.606-.397.892-.884.892-1.464 0-.579-.223-1.036-.7-1.372-.478-.335-.67-.731-.574-1.25.064-.518.319-.853.733-1.036.414-.183 1.083-.305 2.039-.305.987.183 1.593.67 1.816 1.433.223.762.19 1.463-.064 2.134-.255.67.064 1.25.956 1.768.892.519 1.688.702 2.357.519.701-.183 1.083.03 1.179.61-.096.64-.287 1.006-.542 1.127-.254.122-.764.244-1.529.336-.764.091-1.688-.122-2.771-.67-1.084-.55-1.848-.672-2.326-.336a27.84 27.84 0 0 1-2.103 1.31c-.924.55-1.848.976-2.74 1.281a9.412 9.412 0 0 1-3.058.488c-1.051-.335-1.816-.854-2.262-1.555a4.28 4.28 0 0 1-.669-2.317c.096-.58.573-1.25 1.37-1.951.796-.701 1.593-1.311 2.326-1.768a7.9 7.9 0 0 1 2.262-1.037c.764-.213 1.306-.183 1.624.091.319.275.542.64.637 1.037.096.427.064.732-.127 1.006a1.527 1.527 0 0 1-.828.518c-.35.092-.86.183-1.498.336-.637.152-1.338.488-2.07 1.006-.733.488-.924 1.006-.574 1.524z"/><path id="dqygd" d="M853.899 2189.287c.484-.181 1.21-.665 2.178-1.39.967-.755 2.143-1.42 3.456-2.024a90.568 90.568 0 0 1 3.111-1.36 7.345 7.345 0 0 1 2.455-.513c.795.242 1.279.665 1.417 1.239.173.574.104 1.208-.173 1.843-.276.664-1.279 1.782-3.007 3.353 2.73-1.39 4.632-2.387 5.669-2.9 1.037-.544 1.867-.876 2.523-.997.623-.121 1.176.06 1.625.513.45.484.45 1.148 0 2.055-.45.906-.622 1.57-.45 2.024.174.453 1.314.393 3.457-.12 2.144-.515 3.768-.998 4.84-1.451-.07.816-.311 1.39-.726 1.752-.415.333-1.728.816-3.906 1.45-2.178.605-3.837.786-4.909.544-1.071-.242-1.763-.665-2.04-1.239-.276-.543-.31-1.148-.103-1.782.207-.634-.415-.483-1.901.453a41.797 41.797 0 0 1-3.872 2.175c-1.106.514-1.936.877-2.489 1.088-.726 0-1.313-.12-1.728-.332-.415-.212-.657-.605-.691-1.179-.035-.574.276-1.087.967-1.57a31.118 31.118 0 0 0 1.97-1.511c.623-.514 1.038-1.058 1.176-1.601.138-.544-.207-.725-1.106-.514-.864.212-2.074.755-3.595 1.692-1.521.936-2.524 1.51-3.007 1.722-.484.242-1.176.362-2.04.453.104-1.087.415-1.692.899-1.873z"/><path id="dqyge" d="M879.304 2189.235c.237-.62.541-1.24.98-1.926.406-.685 1.353-1.664 2.84-2.937 1.488-1.305 2.57-2.448 3.28-3.46-1.082.131-1.792.196-2.164.229-.372 0-.575-.196-.642-.62-.068-.424.034-.75.304-.947.27-.195.845-.359 1.657-.457a41.43 41.43 0 0 0 2.57-.391c1.554-1.436 2.839-2.578 3.853-3.427.98-.849 2.062-1.795 3.212-2.774 1.15-.98 2.231-1.828 3.246-2.48 1.014-.653 1.893-1.012 2.67-1.045.44.555.034 1.403-1.25 2.48-1.285 1.11-2.3 2.024-3.043 2.742l-2.164 2.089a93.294 93.294 0 0 0-2.367 2.382c1.15-.13 2.874-.326 5.14-.587 2.298-.261 4.63-.49 6.997-.686 2.4-.228 4.801-.391 7.235-.554 2.435-.164 4.801-.262 7.134-.294 2.333-.033 4.767-.033 7.268.032 2.536.066 4.565.164 6.154.294 1.588.163 2.84.62 3.786 1.404-.947.293-1.826.391-2.637.293-.811-.098-1.657-.196-2.57-.228-.912-.065-1.994-.065-3.279-.033-1.284.033-2.84.065-4.631.13-1.826.066-3.753.099-5.815.131-2.063.033-4.159.13-6.289.294-2.13.163-4.124.359-6.051.555a268.16 268.16 0 0 1-5.95.522c-2.063.163-3.516.261-4.395.326-.88.066-1.59.131-2.13.196a4.981 4.981 0 0 0-1.386.36c-.372.162-.744.424-1.15.75-.406.326-.913.816-1.521 1.403-.609.588-1.319 1.371-2.164 2.35-.845.947-1.555 1.795-2.231 2.48-.643.686-1.116 1.339-1.386 1.926-.27.588-.305 1.142-.102 1.6.203.456.609.75 1.183.848.575.098 1.725-.13 3.381-.685 1.657-.555 2.84-1.045 3.55-1.47.71-.423 1.25-.684 1.589-.815.372-.098.642-.033.845.228.203.262-.101.718-.845 1.339-.778.62-1.454 1.11-2.062 1.468-.609.327-1.319.653-2.096.947-.778.293-1.657.522-2.671.652-.643.098-1.217.131-1.792.131-.338 0-.676 0-1.014-.033-.88-.098-1.59-.293-2.096-.587a2.224 2.224 0 0 1-1.015-1.208 2.904 2.904 0 0 1-.27-1.207c0-.033 0-.066.034-.098-.068-.522.034-1.012.27-1.632z"/><path id="dqygf" d="M917.773 2189.091c1.386-.35 3.11-.985 5.137-1.907 2.028-.89 4.157-2.192 6.388-3.877 2.23-1.684 4.36-3.496 6.32-5.498a68.112 68.112 0 0 1 6.488-5.72 217.874 217.874 0 0 1 5.847-4.48c1.555-1.145 3.11-2.448 4.664-3.878l.845-.731c.642.318 1.149.636 1.453.985.304.35.473.763.507 1.176.034.413-.237.922-.744 1.462a63.63 63.63 0 0 0-2.298 2.606c-1.014 1.207-2.028 2.415-3.075 3.623a27.593 27.593 0 0 0-2.67 3.623c-.744 1.175-1.386 2.256-1.96 3.21-.575.953-1.116 1.874-1.69 2.796-.575.922-1.183 1.907-1.825 2.955-.642 1.05-.101.954 1.656-.254 1.757-1.207 3.278-2.288 4.63-3.21 1.352-.921 2.5-1.747 3.447-2.51.98-.763 2.23-1.716 3.752-2.86 1.52-1.144 2.805-2.098 3.852-2.829 1.048-.73 1.927-1.303 2.67-1.684.71-.381 1.42-.763 2.096-1.08.675-.318 1.284-.477 1.825-.445.54.031.81.413.912 1.112v.635c-.811.414-1.656.858-2.535 1.335a23.257 23.257 0 0 0-2.737 1.748c-.946.7-1.927 1.494-2.907 2.415a29.187 29.187 0 0 0-3.007 3.337 69.389 69.389 0 0 0-2.806 3.75c-.81 1.176-1.351 2.034-1.554 2.51-.237.477-.406 1.081-.609 1.812-.168.731.237 1.049 1.217.985.98-.063 1.927-.222 2.771-.381.88-.19 1.623-.381 2.299-.636a16.035 16.035 0 0 0 1.858-.794c.575-.286 1.048.095 1.42 1.144-.203.636-.744 1.08-1.555 1.335-.81.254-1.825.54-3.041.89-1.217.35-2.4.603-3.583.794-1.183.19-2.771.35-4.799.445-.811-.19-1.386-.477-1.656-.858-.304-.381-.203-1.144.237-2.288a9.113 9.113 0 0 1 1.858-2.956c.778-.826 1.825-1.906 3.143-3.21 1.285-1.302 1.386-1.588.27-.89-1.114.7-2.162 1.399-3.142 2.035-.946.667-2.096 1.366-3.38 2.16a35.065 35.065 0 0 0-3.853 2.67c-1.25 1.017-2.298 1.684-3.143 2.002-.81.318-1.453.318-1.926.032-.473-.318-.71-.763-.743-1.366-.034-.604.169-1.176.574-1.748.406-.572.98-1.208 1.724-1.97.743-.763 1.52-1.812 2.332-3.147a58.248 58.248 0 0 1 2.5-3.75 78.335 78.335 0 0 0 2.569-3.591c.845-1.24 1.52-2.161 1.96-2.765a22.01 22.01 0 0 0 1.217-1.843c.372-.604.27-.763-.237-.445-.54.318-1.723 1.303-3.616 2.987a174.497 174.497 0 0 0-4.968 4.577c-1.42 1.366-3.346 3.082-5.813 5.148-2.433 2.066-4.765 3.655-6.928 4.799-2.163 1.112-4.123 2.002-5.813 2.637-1.69.636-3.38 1.176-5.002 1.685l-1.42-.032c-1.216-.445-2.027-.954-2.466-1.59-.406-.603-.642-1.397-.71-2.383.203-1.239.575-2.16 1.081-2.764.507-.604 1.116-1.08 1.792-1.367.676-.286 1.216-.445 1.622-.381.405.031.608.254.608.635 0 .382-.304.922-.912 1.621-.609.7-.845 1.335-.71 1.907.135.572.507.921 1.183 1.049.676-.032 1.69-.128 3.11-.509z"/><path id="dqygg" d="M962.122 2189.89c.35.519.797.762 1.306.793.51.03 1.02-.122 1.466-.427.478-.305 1.02-.58 1.625-.854.637-.274 1.242-.579 1.847-.975.606-.397.892-.884.892-1.464 0-.579-.223-1.036-.7-1.372-.478-.335-.67-.731-.574-1.25.064-.518.319-.853.733-1.036.414-.183 1.083-.305 2.039-.305.987.183 1.593.67 1.816 1.433.223.762.19 1.463-.064 2.134-.255.67.064 1.25.956 1.768.892.519 1.688.702 2.357.519.701-.183 1.083.03 1.179.61-.096.64-.287 1.006-.542 1.127-.254.122-.764.244-1.529.336-.764.091-1.688-.122-2.771-.67-1.084-.55-1.848-.672-2.326-.336a27.84 27.84 0 0 1-2.103 1.31c-.924.55-1.848.976-2.74 1.281a9.412 9.412 0 0 1-3.058.488c-1.051-.335-1.816-.854-2.262-1.555a4.28 4.28 0 0 1-.669-2.317c.096-.58.573-1.25 1.37-1.951.796-.701 1.593-1.311 2.326-1.768a7.9 7.9 0 0 1 2.262-1.037c.764-.213 1.306-.183 1.624.091.319.275.542.64.637 1.037.096.427.064.732-.127 1.006a1.527 1.527 0 0 1-.828.518c-.35.092-.86.183-1.498.336-.637.152-1.338.488-2.07 1.006-.733.488-.924 1.006-.574 1.524z"/><path id="dqygh" d="M977.916 2192.176c.238.23.885.066 1.975-.46a35.655 35.655 0 0 0 3.133-1.707c.987-.624 1.702-1.215 2.145-1.839a4.997 4.997 0 0 0 .851-1.904c.103-.657.069-1.084-.204-1.314-.238-.23-.647-.197-1.192.066-.545.263-1.226.722-2.009 1.412-.817.657-1.532 1.346-2.213 2.036a20.986 20.986 0 0 0-1.907 2.233c-.613.755-.783 1.28-.579 1.477zm14.234-10.212c.647-.92 1.226-1.642 1.702-2.134.477-.493 1.124-1.117 1.941-1.937.818-.789 1.635-1.61 2.52-2.397.886-.789 1.703-1.412 2.452-1.806.783-.394 1.328-.624 1.703-.69.544.099.92.263 1.09.427.17.164.34.492.442.952-.238.755-.715 1.543-1.464 2.364-.75.821-1.533 1.675-2.384 2.529-.851.853-1.566 1.477-2.145 1.871-.58.394-1.192.723-1.805.985-.613.263-1.26.756-1.975 1.51a599.49 599.49 0 0 1-2.281 2.398c-.818.854-1.363 1.576-1.703 2.134-.34.558-.681 1.05-1.09 1.478-.374.394-.579.755-.579 1.083 0 .296.205.493.613.591.409.099.886-.065 1.396-.46.511-.393 1.226-.689 2.146-.82.92-.164 1.634-.394 2.11-.69.478-.295.784-.262.886.132.102.36.17.69.239.919.034.23-.273.525-1.022.92-.715.36-1.396.623-2.009.755-.613.164-1.158.328-1.634.492-.477.197-1.158.361-2.044.558-.885.197-1.634.23-2.315.099s-1.056-.394-1.192-.854c-.102-.46-.238-1.018-.34-1.773-.511.394-1.09.788-1.737 1.182-.647.394-1.26.755-1.839 1.05-.579.296-1.192.625-1.805.986s-1.123.624-1.498.82c-.375.198-1.158.33-2.316.362-.817-.099-1.43-.427-1.838-.985-.273-.394-.375-.854-.375-1.314.17-.788.51-1.51 1.022-2.101.51-.624 1.09-1.28 1.702-2.003a17.68 17.68 0 0 1 1.907-1.937 44.066 44.066 0 0 1 1.941-1.675 14.157 14.157 0 0 1 2.145-1.445c.784-.394 1.567-.69 2.35-.886.783-.197 1.396-.23 1.873-.197.477.065.92.262 1.26.59.34.33.545.69.579 1.052.034.36.102.755.17 1.149.068.394.34.427.75.065a5.344 5.344 0 0 0 1.055-1.247c.272-.493.749-1.182 1.396-2.102z"/><path id="dqygi" d="M998.862 2187.762c1.307-.417 2.21-.804 2.645-1.19.435-.358.622-.715.56-1.012-.063-.298-.436-.298-1.09.03-.684.327-1.12.654-1.368 1.011-.28.357-.529.744-.747 1.16zm-2.426-.417c.28-.565.746-1.19 1.368-1.785a15.136 15.136 0 0 1 1.898-1.608c.622-.446 1.276-.773 1.96-.922l.747-.03c.653.03 1.244.208 1.742.536.498.327.716.922.622 1.756-.062.833-.497 1.547-1.306 2.172a7.66 7.66 0 0 1-2.676 1.31c-.995.268-1.524.506-1.587.714-.062.208.094.447.498.714.405.268 1.307.417 2.676.506 1.4.06 2.52 0 3.422-.208a13.67 13.67 0 0 0 2.147-.685c.56-.238.995-.416 1.306-.505.311-.09.56.06.747.476-.56.774-1.182 1.339-1.836 1.696-.684.357-1.493.685-2.52.982-.995.298-2.24.476-3.67.536h-.872c-1.586-.149-2.644-.357-3.173-.595-.56-.268-.965-.566-1.276-.923-.31-.357-.529-.863-.653-1.577 0-1.16.156-1.994.436-2.56z"/><path id="dqygj" d="M1024.674 2189.26c-1.166.873-1.886 1.278-2.126 1.154-.274-.125-.445-.374-.548-.717 0-.25.103-.468.274-.686.172-.218.789-.716 1.817-1.495 1.028-.78 2.125-1.59 3.325-2.369 1.2-.779 2.365-1.464 3.565-1.994 1.2-.53 2.365-.904 3.53-1.153h.514c.96.125 1.611.343 1.954.686.343.311.48.685.446 1.059-.035.374-.343.904-.891 1.62-.549.717-1.269 1.403-2.194 2.088-.926.686-1.68 1.278-2.297 1.745-.617.499-.685.717-.205.655.48-.031 1.2-.25 2.159-.624.96-.373 1.851-.779 2.64-1.246a19.9 19.9 0 0 1 2.502-1.184c.89-.343 1.953-.686 3.153-1.06 1.2-.342 2.194-.467 2.948-.311.754.156 1.234.592 1.474 1.37.24.749.103 1.497-.377 2.244-.48.748-.377 1.06.308.904a17.87 17.87 0 0 0 2.4-.748c.925-.374 1.748-.716 2.468-.997.72-.311 1.61-.654 2.639-1.09a21.749 21.749 0 0 1 3.256-1.06c1.131-.28 2.057-.25 2.708.093.652.343 1.029.78 1.097 1.34.069.561-.137 1.091-.617 1.652-.48.53-.823.997-1.062 1.402-.24.405.102.53.925.436.823-.093 1.954-.498 3.393-1.152a22.674 22.674 0 0 0 3.84-2.213c.205.187.308.405.308.654 0 .219-.103.468-.274.748-.377.561-1.406 1.31-3.05 2.213-1.68.903-3.6 1.496-5.862 1.776-1.748-.062-2.777-.374-3.051-.935-.274-.56-.171-1.028.309-1.371.48-.343.89-.81 1.2-1.402.342-.592-.035-.717-1.063-.405a34.226 34.226 0 0 0-2.914 1.028c-.891.374-2.09.779-3.565 1.153-1.474.405-2.913.779-4.319 1.184-1.405.374-2.57.592-3.427.655h-.137c-.789 0-1.2-.219-1.2-.655.103-.748.48-1.371 1.2-1.807.685-.468 1.2-.935 1.473-1.465.275-.53 0-.748-.89-.685-.892.062-1.749.218-2.572.498-.822.28-1.953.717-3.324 1.278-1.406.56-2.777 1.09-4.148 1.59-1.371.498-2.468.84-3.325.996a8.348 8.348 0 0 1-1.954.218c-.514 0-.925 0-1.234-.03a.977.977 0 0 1-.754-.468c-.171-.28-.103-.623.206-1.029.308-.405 1.062-.934 2.262-1.62a77.347 77.347 0 0 0 3.05-1.87 34.699 34.699 0 0 0 2.503-1.776c.823-.623 1.131-1.06.96-1.371-.172-.312-.651-.343-1.474-.093-.788.249-1.645.623-2.57 1.121-.926.53-2.263 1.371-4.046 2.587z"/><path id="dqygk" d="M1069.276 2187.505c-.885.674-1.43 1.255-1.668 1.776-.238.52-.17.919.204 1.194.374.276.987.306 1.804.061a16.947 16.947 0 0 0 2.553-.98 22.629 22.629 0 0 0 2.382-1.316c.715-.46 1.123-.888 1.225-1.286.102-.398.068-.796-.136-1.225-.204-.429-.68-.612-1.43-.551-.748.061-1.53.306-2.416.704-.783.429-1.634.98-2.518 1.623zm-3.37-.456c1.225-1.074 2.382-1.871 3.438-2.393a45.764 45.764 0 0 1 2.484-1.135c.613-.245 1.43-.398 2.485-.521 1.395.03 2.314.215 2.825.49.476.277.817.614.953.982.17.368.204.798.17 1.258-.034.46.204.644.68.552.477-.092.75.092.75.614.033.521-.205 1.073-.681 1.625-.477.553-.851.951-1.157 1.166-.273.215-.375.46-.239.736.102.276.443.491.987.614.545.123 1.192.092 1.94-.092a7.607 7.607 0 0 0 2.008-.798c.579-.337 1.09-.521 1.532-.552.477-.03.749.123.919.46 0 .614-.272 1.135-.783 1.534-.51.399-1.225.736-2.144.982-.919.245-1.668.398-2.246.398-.579.031-.92.031-1.021.031-1.328 0-2.349-.184-3.03-.552-.782-.368-1.361-.89-1.735-1.503-.953.245-1.838.552-2.587.92-.783.368-1.498.675-2.247.859a9.685 9.685 0 0 1-2.382.276c-.613 0-1.225-.245-1.872-.736s-.953-1.442-.953-2.822c.034-.491.647-1.32 1.906-2.393z"/><path id="dqygl" d="M1105.93 2173.382l-.634-.16c-.634-.677-1.102-1.193-1.435-1.515.3-.612.868-1.192 1.736-1.675l.667-.032c.568.258.835.58.868.966.033.387.3.774.868 1.128l-.234.58a5.285 5.285 0 0 1-1.836.708zm-16.857 13.175c.867-1.063 1.836-1.868 2.937-2.319 1.102-.45 2.003-.966 2.67-1.514.668-.515 1.303-.709 1.937-.548.6.162.901.548.901 1.128 0 .58-.367 1.063-1.035 1.482-.667.386-1.201.837-1.535 1.288-.334.451-.601.967-.801 1.514-.2.548-.2 1.128-.034 1.675.2.548.568.934 1.135 1.096.568.16 1.436.257 2.604.225 1.168 0 2.203-.129 3.104-.354.902-.226 1.67-.516 2.337-.934.668-.387 1.235-.516 1.703-.42l.2.806c-.3.483-.734.87-1.302 1.192-.567.322-1.135.612-1.669.805-.568.226-1.335.451-2.37.677a38.096 38.096 0 0 1-3.539.58l-1.468.064c-1.169-.129-2.037-.354-2.57-.644a3.587 3.587 0 0 1-1.303-1.224c-.333-.516-.5-1.031-.534-1.547a4.116 4.116 0 0 1 .2-1.546c.167-.515 0-.483-.467.032-.467.548-1.101 1.031-1.936 1.482-.835.451-1.502.838-2.07 1.095-.567.29-.968-.16-1.168-1.288 1.836-.773 3.205-1.707 4.073-2.803z"/><path id="dqygm" d="M1109.365 2184.785a7.6 7.6 0 0 0 2.878-.901c.925-.5 1.884-1.169 2.878-1.97.993-.801 1.747-1.536 2.295-2.203.548-.668.788-1.202.72-1.57-.035-.4-.309-.534-.789-.467-.48.1-1.13.4-1.952.968-.822.534-1.645 1.302-2.535 2.237a87.61 87.61 0 0 1-2.159 2.204 6.441 6.441 0 0 0-1.336 1.702zm-5.858 3.606a50.673 50.673 0 0 1 2.535-2.637c.823-.735 1.885-1.903 3.255-3.54 1.37-1.602 2.672-2.97 3.94-4.14 1.267-1.134 2.432-2.002 3.46-2.637 1.027-.6 2.09-1.402 3.186-2.37l.685-.067c.582.1 1.062.234 1.439.4.376.168.65.401.856.702l.137.734c-.171.601-.685 1.503-1.542 2.671a18.722 18.722 0 0 1-2.946 3.172 175.896 175.896 0 0 1-3.186 2.67c-.993.835-2.055 1.503-3.186 1.97-1.096.468-2.055.869-2.912 1.17a6.84 6.84 0 0 0-2.226 1.435c-.651.634-1.165 1.268-1.508 1.936-.342.668-.41 1.202-.24 1.67.206.467.617.7 1.302.7.685.034 1.508-.033 2.433-.166.925-.134 1.815-.3 2.706-.501.856-.2 1.61-.468 2.295-.801.651-.334 1.13-.601 1.439-.802.308-.2.582.1.788.935-.343.701-1.062 1.269-2.158 1.736-1.097.468-3.015.902-5.79 1.369h-2.466c-1.336-.1-2.193-.334-2.57-.668a3.714 3.714 0 0 1-.856-1.101c-.206-.401-.308-.869-.377-1.37.137-.634.617-1.468 1.507-2.47z"/></defs><g><g transform="translate(-797 -2163)"><g><use xlink:href="#dqyga"/></g><g><use xlink:href="#dqygb"/></g><g><use xlink:href="#dqygc"/></g><g><use xlink:href="#dqygd"/></g><g><use xlink:href="#dqyge"/></g><g><use xlink:href="#dqygf"/></g><g><use xlink:href="#dqygg"/></g><g><use xlink:href="#dqygh"/></g><g><use xlink:href="#dqygi"/></g><g><use xlink:href="#dqygj"/></g><g><use xlink:href="#dqygk"/></g><g><use xlink:href="#dqygl"/></g><g><use xlink:href="#dqygm"/></g></g></g></svg>