<svg xmlns="http://www.w3.org/2000/svg" xmlns:xlink="http://www.w3.org/1999/xlink" width="20" height="20"><defs><path id="a" d="M1035.988 2329.042a3.946 3.946 0 0 1-3.946 3.946h-8.084a3.946 3.946 0 0 1-3.946-3.946v-8.084a3.946 3.946 0 0 1 3.946-3.946h8.084a3.946 3.946 0 0 1 3.946 3.946v8.084zm-3.946-14.042h-8.084a5.965 5.965 0 0 0-5.958 5.958v8.084a5.965 5.965 0 0 0 5.958 5.958h8.084a5.965 5.965 0 0 0 5.958-5.958v-8.084a5.965 5.965 0 0 0-5.958-5.958z"/><path id="b" d="M1028.005 2328.065a3.06 3.06 0 1 1 0-6.12 3.06 3.06 0 0 1 0 6.12zM1028 2320c-2.757 0-5 2.243-5 5s2.243 5 5 5 5-2.243 5-5-2.243-5-5-5z"/><path id="c" d="M1032 2319.5a1.5 1.5 0 1 1 3 0 1.5 1.5 0 0 1-3 0z"/></defs><use xlink:href="#a" transform="translate(-1018 -2315)"/><use xlink:href="#b" transform="translate(-1018 -2315)"/><use xlink:href="#c" transform="translate(-1018 -2315)"/></svg>